<?xml version="1.0" encoding="utf-8" standalone="no"?>
<!DOCTYPE svg PUBLIC "-//W3C//DTD SVG 1.1//EN"
  "http://www.w3.org/Graphics/SVG/1.1/DTD/svg11.dtd">
<svg xmlns:xlink="http://www.w3.org/1999/xlink" width="1144.8pt" height="856.427216pt" viewBox="0 0 1144.8 856.427216" xmlns="http://www.w3.org/2000/svg" version="1.1">
 <metadata>
  <rdf:RDF xmlns:dc="http://purl.org/dc/elements/1.1/" xmlns:cc="http://creativecommons.org/ns#" xmlns:rdf="http://www.w3.org/1999/02/22-rdf-syntax-ns#">
   <cc:Work>
    <dc:type rdf:resource="http://purl.org/dc/dcmitype/StillImage"/>
    <dc:date>2026-06-08T20:40:33.694054</dc:date>
    <dc:format>image/svg+xml</dc:format>
    <dc:creator>
     <cc:Agent>
      <dc:title>Matplotlib v3.10.9, https://matplotlib.org/</dc:title>
     </cc:Agent>
    </dc:creator>
   </cc:Work>
  </rdf:RDF>
 </metadata>
 <defs>
  <style type="text/css">*{stroke-linejoin: round; stroke-linecap: butt}</style>
 </defs>
 <g id="figure_1">
  <g id="patch_1">
   <path d="M 0 856.427216 
L 1144.8 856.427216 
L 1144.8 0 
L 0 0 
z
" style="fill: #ffffff"/>
  </g>
  <g id="axes_1">
   <g id="patch_2">
    <path d="M 369.830442 509.464237 
Q 277.291884 585.33418 209.219147 680.708165 
" clip-path="url(#pe7e74593b4)" style="fill: none; stroke: #e69f00; stroke-width: 2.226345; stroke-linecap: round"/>
    <path d="M 217.122488 676.520421 
L 209.219147 680.708165 
L 210.610956 671.872846 
z
" clip-path="url(#pe7e74593b4)" style="fill: #e69f00; stroke: #e69f00; stroke-width: 2.226345; stroke-linecap: round"/>
   </g>
   <g id="patch_3">
    <path d="M 620.055196 567.051211 
Q 705.167986 669.676975 812.708787 744.781517 
" clip-path="url(#pe7e74593b4)" style="fill: none; stroke: #e69f00; stroke-width: 1.929314; stroke-linecap: round"/>
    <path d="M 808.440236 736.921525 
L 812.708787 744.781517 
L 803.859663 743.480363 
z
" clip-path="url(#pe7e74593b4)" style="fill: #e69f00; stroke: #e69f00; stroke-width: 1.929314; stroke-linecap: round"/>
   </g>
   <g id="patch_4">
    <path d="M 599.272476 571.902297 
Q 586.012152 637.279116 588.1407 701.653757 
" clip-path="url(#pe7e74593b4)" style="fill: none; stroke: #e69f00; stroke-width: 2.05561; stroke-linecap: round"/>
    <path d="M 591.87414 693.525939 
L 588.1407 701.653757 
L 583.87851 693.790315 
z
" clip-path="url(#pe7e74593b4)" style="fill: #e69f00; stroke: #e69f00; stroke-width: 2.05561; stroke-linecap: round"/>
   </g>
   <g id="patch_5">
    <path d="M 133.098117 512.292184 
Q 147.761897 599.620872 182.638896 678.599135 
" clip-path="url(#pe7e74593b4)" style="fill: none; stroke: #e69f00; stroke-width: 1.98102; stroke-linecap: round"/>
    <path d="M 183.06626 669.665079 
L 182.638896 678.599135 
L 175.748069 672.89681 
z
" clip-path="url(#pe7e74593b4)" style="fill: #e69f00; stroke: #e69f00; stroke-width: 1.98102; stroke-linecap: round"/>
   </g>
   <g id="patch_6">
    <path d="M 935.193283 628.570525 
Q 683.966761 524.246835 416.065693 496.80384 
" clip-path="url(#pe7e74593b4)" style="fill: none; stroke: #009e73; stroke-width: 2.43569; stroke-linecap: round"/>
    <path d="M 423.616432 501.598247 
L 416.065693 496.80384 
L 424.431662 493.639893 
z
" clip-path="url(#pe7e74593b4)" style="fill: #009e73; stroke: #009e73; stroke-width: 2.43569; stroke-linecap: round"/>
   </g>
   <g id="patch_7">
    <path d="M 938.15304 652.802654 
Q 888.853847 691.485022 851.055829 738.58641 
" clip-path="url(#pe7e74593b4)" style="fill: none; stroke: #e69f00; stroke-width: 2.031577; stroke-linecap: round"/>
    <path d="M 859.182521 734.85052 
L 851.055829 738.58641 
L 852.943132 729.843523 
z
" clip-path="url(#pe7e74593b4)" style="fill: #e69f00; stroke: #e69f00; stroke-width: 2.031577; stroke-linecap: round"/>
   </g>
   <g id="patch_8">
    <path d="M 757.894954 455.271236 
Q 686.178494 485.919633 626.938274 530.612559 
" clip-path="url(#pe7e74593b4)" style="fill: none; stroke: #e69f00; stroke-width: 3.383315; stroke-linecap: round"/>
    <path d="M 635.733706 528.987638 
L 626.938274 530.612559 
L 630.915596 522.601261 
z
" clip-path="url(#pe7e74593b4)" style="fill: #e69f00; stroke: #e69f00; stroke-width: 3.383315; stroke-linecap: round"/>
   </g>
   <g id="patch_9">
    <path d="M 794.446909 466.275184 
Q 856.397855 553.87671 936.518676 620.829975 
" clip-path="url(#pe7e74593b4)" style="fill: none; stroke: #e69f00; stroke-width: 2.576563; stroke-linecap: round"/>
    <path d="M 932.944856 612.630719 
L 936.518676 620.829975 
L 927.814979 618.769478 
z
" clip-path="url(#pe7e74593b4)" style="fill: #e69f00; stroke: #e69f00; stroke-width: 2.576563; stroke-linecap: round"/>
   </g>
   <g id="patch_10">
    <path d="M 781.185696 470.561862 
Q 786.094145 606.657243 826.360363 734.251216 
" clip-path="url(#pe7e74593b4)" style="fill: none; stroke: #e69f00; stroke-width: 2.135115; stroke-linecap: round"/>
    <path d="M 827.767318 725.418296 
L 826.360363 734.251216 
L 820.1382 727.8259 
z
" clip-path="url(#pe7e74593b4)" style="fill: #e69f00; stroke: #e69f00; stroke-width: 2.135115; stroke-linecap: round"/>
   </g>
   <g id="patch_11">
    <path d="M 782.511519 421.653971 
Q 789.428918 313.517326 768.94541 210.216057 
" clip-path="url(#pe7e74593b4)" style="fill: none; stroke: #e69f00; stroke-width: 2.723625; stroke-linecap: round"/>
    <path d="M 766.577818 218.841282 
L 768.94541 210.216057 
L 774.425035 217.285265 
z
" clip-path="url(#pe7e74593b4)" style="fill: #e69f00; stroke: #e69f00; stroke-width: 2.723625; stroke-linecap: round"/>
   </g>
   <g id="patch_12">
    <path d="M 773.046658 422.766663 
Q 720.906553 267.214112 630.039543 134.429872 
" clip-path="url(#pe7e74593b4)" style="fill: none; stroke: #009e73; stroke-width: 2.825981; stroke-linecap: round"/>
    <path d="M 631.25645 143.290975 
L 630.039543 134.429872 
L 637.858569 138.773008 
z
" clip-path="url(#pe7e74593b4)" style="fill: #009e73; stroke: #009e73; stroke-width: 2.825981; stroke-linecap: round"/>
   </g>
   <g id="patch_13">
    <path d="M 1001.148296 423.399923 
Q 899.775726 568.815713 843.242273 734.175139 
" clip-path="url(#pe7e74593b4)" style="fill: none; stroke: #d55e00; stroke-width: 2.242036; stroke-linecap: round"/>
    <path d="M 849.615178 727.899306 
L 843.242273 734.175139 
L 842.045349 725.311316 
z
" clip-path="url(#pe7e74593b4)" style="fill: #d55e00; stroke: #d55e00; stroke-width: 2.242036; stroke-linecap: round"/>
   </g>
   <g id="patch_14">
    <path d="M 565.601906 723.215468 
Q 393.483185 687.607152 221.010003 700.580069 
" clip-path="url(#pe7e74593b4)" style="fill: none; stroke: #009e73; stroke-width: 2.507225; stroke-linecap: round"/>
    <path d="M 229.287488 703.96876 
L 221.010003 700.580069 
L 228.687447 695.991295 
z
" clip-path="url(#pe7e74593b4)" style="fill: #009e73; stroke: #009e73; stroke-width: 2.507225; stroke-linecap: round"/>
   </g>
   <g id="patch_15">
    <path d="M 406.200787 387.799903 
Q 284.737202 520.120558 205.932697 678.048 
" clip-path="url(#pe7e74593b4)" style="fill: none; stroke: #e69f00; stroke-width: 2.790188; stroke-linecap: round"/>
    <path d="M 213.083782 672.675666 
L 205.932697 678.048 
L 205.925481 669.103731 
z
" clip-path="url(#pe7e74593b4)" style="fill: #e69f00; stroke: #e69f00; stroke-width: 2.790188; stroke-linecap: round"/>
   </g>
   <g id="patch_16">
    <path d="M 408.188841 350.35508 
Q 358.917375 287.44536 298.658815 240.43389 
" clip-path="url(#pe7e74593b4)" style="fill: none; stroke: #e69f00; stroke-width: 3.113101; stroke-linecap: round"/>
    <path d="M 302.50589 248.508542 
L 298.658815 240.43389 
L 307.426782 242.201021 
z
" clip-path="url(#pe7e74593b4)" style="fill: #e69f00; stroke: #e69f00; stroke-width: 3.113101; stroke-linecap: round"/>
   </g>
   <g id="patch_17">
    <path d="M 611.176902 325.454286 
Q 498.579785 387.41505 408.563857 474.755479 
" clip-path="url(#pe7e74593b4)" style="fill: none; stroke: #009e73; stroke-width: 2.768433; stroke-linecap: round"/>
    <path d="M 417.090837 472.055363 
L 408.563857 474.755479 
L 411.519952 466.313826 
z
" clip-path="url(#pe7e74593b4)" style="fill: #009e73; stroke: #009e73; stroke-width: 2.768433; stroke-linecap: round"/>
   </g>
   <g id="patch_18">
    <path d="M 626.635705 337.631772 
Q 581.63267 518.082362 588.333511 701.439591 
" clip-path="url(#pe7e74593b4)" style="fill: none; stroke: #e69f00; stroke-width: 2.234314; stroke-linecap: round"/>
    <path d="M 592.038676 693.298844 
L 588.333511 701.439591 
L 584.044013 693.591011 
z
" clip-path="url(#pe7e74593b4)" style="fill: #e69f00; stroke: #e69f00; stroke-width: 2.234314; stroke-linecap: round"/>
   </g>
   <g id="patch_19">
    <path d="M 742.26399 195.91573 
Q 553.589765 311.621474 407.754647 473.110204 
" clip-path="url(#pe7e74593b4)" style="fill: none; stroke: #009e73; stroke-width: 3.340508; stroke-linecap: round"/>
    <path d="M 416.085063 469.853799 
L 407.754647 473.110204 
L 410.147772 464.492028 
z
" clip-path="url(#pe7e74593b4)" style="fill: #009e73; stroke: #009e73; stroke-width: 3.340508; stroke-linecap: round"/>
   </g>
   <g id="patch_20">
    <path d="M 634.665168 125.238304 
Q 684.442152 156.447279 735.177303 174.106055 
" clip-path="url(#pe7e74593b4)" style="fill: none; stroke: #d55e00; stroke-width: 4.5; stroke-linecap: round"/>
    <path d="M 728.936737 167.698611 
L 735.177303 174.106055 
L 726.307009 175.254042 
z
" clip-path="url(#pe7e74593b4)" style="fill: #d55e00; stroke: #d55e00; stroke-width: 4.5; stroke-linecap: round"/>
   </g>
   <g id="text_1">
    <g id="patch_21">
     <path d="M 279.13441 603.196009 
L 303.65066 603.196009 
Q 304.45066 603.196009 304.45066 602.396009 
L 304.45066 594.653509 
Q 304.45066 593.853509 303.65066 593.853509 
L 279.13441 593.853509 
Q 278.33441 593.853509 278.33441 594.653509 
L 278.33441 602.396009 
Q 278.33441 603.196009 279.13441 603.196009 
z
" clip-path="url(#pe7e74593b4)" style="fill: #ffffff; opacity: 0.6"/>
    </g>
    <g clip-path="url(#pe7e74593b4)">
     <!-- +0.08 -->
     <g transform="translate(279.13441 600.732259) scale(0.08 -0.08)">
      <defs>
       <path id="DejaVuSans-2b" d="M 2944 4013 
L 2944 2272 
L 4684 2272 
L 4684 1741 
L 2944 1741 
L 2944 0 
L 2419 0 
L 2419 1741 
L 678 1741 
L 678 2272 
L 2419 2272 
L 2419 4013 
L 2944 4013 
z
" transform="scale(0.015625)"/>
       <path id="DejaVuSans-30" d="M 2034 4250 
Q 1547 4250 1301 3770 
Q 1056 3291 1056 2328 
Q 1056 1369 1301 889 
Q 1547 409 2034 409 
Q 2525 409 2770 889 
Q 3016 1369 3016 2328 
Q 3016 3291 2770 3770 
Q 2525 4250 2034 4250 
z
M 2034 4750 
Q 2819 4750 3233 4129 
Q 3647 3509 3647 2328 
Q 3647 1150 3233 529 
Q 2819 -91 2034 -91 
Q 1250 -91 836 529 
Q 422 1150 422 2328 
Q 422 3509 836 4129 
Q 1250 4750 2034 4750 
z
" transform="scale(0.015625)"/>
       <path id="DejaVuSans-2e" d="M 684 794 
L 1344 794 
L 1344 0 
L 684 0 
L 684 794 
z
" transform="scale(0.015625)"/>
       <path id="DejaVuSans-38" d="M 2034 2216 
Q 1584 2216 1326 1975 
Q 1069 1734 1069 1313 
Q 1069 891 1326 650 
Q 1584 409 2034 409 
Q 2484 409 2743 651 
Q 3003 894 3003 1313 
Q 3003 1734 2745 1975 
Q 2488 2216 2034 2216 
z
M 1403 2484 
Q 997 2584 770 2862 
Q 544 3141 544 3541 
Q 544 4100 942 4425 
Q 1341 4750 2034 4750 
Q 2731 4750 3128 4425 
Q 3525 4100 3525 3541 
Q 3525 3141 3298 2862 
Q 3072 2584 2669 2484 
Q 3125 2378 3379 2068 
Q 3634 1759 3634 1313 
Q 3634 634 3220 271 
Q 2806 -91 2034 -91 
Q 1263 -91 848 271 
Q 434 634 434 1313 
Q 434 1759 690 2068 
Q 947 2378 1403 2484 
z
M 1172 3481 
Q 1172 3119 1398 2916 
Q 1625 2713 2034 2713 
Q 2441 2713 2670 2916 
Q 2900 3119 2900 3481 
Q 2900 3844 2670 4047 
Q 2441 4250 2034 4250 
Q 1625 4250 1398 4047 
Q 1172 3844 1172 3481 
z
" transform="scale(0.015625)"/>
      </defs>
      <use xlink:href="#DejaVuSans-2b"/>
      <use xlink:href="#DejaVuSans-30" transform="translate(83.789062 0)"/>
      <use xlink:href="#DejaVuSans-2e" transform="translate(147.412109 0)"/>
      <use xlink:href="#DejaVuSans-30" transform="translate(179.199219 0)"/>
      <use xlink:href="#DejaVuSans-38" transform="translate(242.822266 0)"/>
     </g>
    </g>
   </g>
   <g id="text_2">
    <g id="patch_22">
     <path d="M 707.428987 658.571906 
L 731.945237 658.571906 
Q 732.745237 658.571906 732.745237 657.771906 
L 732.745237 650.029406 
Q 732.745237 649.229406 731.945237 649.229406 
L 707.428987 649.229406 
Q 706.628987 649.229406 706.628987 650.029406 
L 706.628987 657.771906 
Q 706.628987 658.571906 707.428987 658.571906 
z
" clip-path="url(#pe7e74593b4)" style="fill: #ffffff; opacity: 0.6"/>
    </g>
    <g clip-path="url(#pe7e74593b4)">
     <!-- +0.04 -->
     <g transform="translate(707.428987 656.108156) scale(0.08 -0.08)">
      <defs>
       <path id="DejaVuSans-34" d="M 2419 4116 
L 825 1625 
L 2419 1625 
L 2419 4116 
z
M 2253 4666 
L 3047 4666 
L 3047 1625 
L 3713 1625 
L 3713 1100 
L 3047 1100 
L 3047 0 
L 2419 0 
L 2419 1100 
L 313 1100 
L 313 1709 
L 2253 4666 
z
" transform="scale(0.015625)"/>
      </defs>
      <use xlink:href="#DejaVuSans-2b"/>
      <use xlink:href="#DejaVuSans-30" transform="translate(83.789062 0)"/>
      <use xlink:href="#DejaVuSans-2e" transform="translate(147.412109 0)"/>
      <use xlink:href="#DejaVuSans-30" transform="translate(179.199219 0)"/>
      <use xlink:href="#DejaVuSans-34" transform="translate(242.822266 0)"/>
     </g>
    </g>
   </g>
   <g id="text_3">
    <g id="patch_23">
     <path d="M 584.836395 642.877299 
L 609.352645 642.877299 
Q 610.152645 642.877299 610.152645 642.077299 
L 610.152645 634.334799 
Q 610.152645 633.534799 609.352645 633.534799 
L 584.836395 633.534799 
Q 584.036395 633.534799 584.036395 634.334799 
L 584.036395 642.077299 
Q 584.036395 642.877299 584.836395 642.877299 
z
" clip-path="url(#pe7e74593b4)" style="fill: #ffffff; opacity: 0.6"/>
    </g>
    <g clip-path="url(#pe7e74593b4)">
     <!-- +0.06 -->
     <g transform="translate(584.836395 640.413549) scale(0.08 -0.08)">
      <defs>
       <path id="DejaVuSans-36" d="M 2113 2584 
Q 1688 2584 1439 2293 
Q 1191 2003 1191 1497 
Q 1191 994 1439 701 
Q 1688 409 2113 409 
Q 2538 409 2786 701 
Q 3034 994 3034 1497 
Q 3034 2003 2786 2293 
Q 2538 2584 2113 2584 
z
M 3366 4563 
L 3366 3988 
Q 3128 4100 2886 4159 
Q 2644 4219 2406 4219 
Q 1781 4219 1451 3797 
Q 1122 3375 1075 2522 
Q 1259 2794 1537 2939 
Q 1816 3084 2150 3084 
Q 2853 3084 3261 2657 
Q 3669 2231 3669 1497 
Q 3669 778 3244 343 
Q 2819 -91 2113 -91 
Q 1303 -91 875 529 
Q 447 1150 447 2328 
Q 447 3434 972 4092 
Q 1497 4750 2381 4750 
Q 2619 4750 2861 4703 
Q 3103 4656 3366 4563 
z
" transform="scale(0.015625)"/>
      </defs>
      <use xlink:href="#DejaVuSans-2b"/>
      <use xlink:href="#DejaVuSans-30" transform="translate(83.789062 0)"/>
      <use xlink:href="#DejaVuSans-2e" transform="translate(147.412109 0)"/>
      <use xlink:href="#DejaVuSans-30" transform="translate(179.199219 0)"/>
      <use xlink:href="#DejaVuSans-36" transform="translate(242.822266 0)"/>
     </g>
    </g>
   </g>
   <g id="text_4">
    <g id="patch_24">
     <path d="M 149.372475 600.137341 
L 173.888725 600.137341 
Q 174.688725 600.137341 174.688725 599.337341 
L 174.688725 591.594841 
Q 174.688725 590.794841 173.888725 590.794841 
L 149.372475 590.794841 
Q 148.572475 590.794841 148.572475 591.594841 
L 148.572475 599.337341 
Q 148.572475 600.137341 149.372475 600.137341 
z
" clip-path="url(#pe7e74593b4)" style="fill: #ffffff; opacity: 0.6"/>
    </g>
    <g clip-path="url(#pe7e74593b4)">
     <!-- +0.05 -->
     <g transform="translate(149.372475 597.673591) scale(0.08 -0.08)">
      <defs>
       <path id="DejaVuSans-35" d="M 691 4666 
L 3169 4666 
L 3169 4134 
L 1269 4134 
L 1269 2991 
Q 1406 3038 1543 3061 
Q 1681 3084 1819 3084 
Q 2600 3084 3056 2656 
Q 3513 2228 3513 1497 
Q 3513 744 3044 326 
Q 2575 -91 1722 -91 
Q 1428 -91 1123 -41 
Q 819 9 494 109 
L 494 744 
Q 775 591 1075 516 
Q 1375 441 1709 441 
Q 2250 441 2565 725 
Q 2881 1009 2881 1497 
Q 2881 1984 2565 2268 
Q 2250 2553 1709 2553 
Q 1456 2553 1204 2497 
Q 953 2441 691 2322 
L 691 4666 
z
" transform="scale(0.015625)"/>
      </defs>
      <use xlink:href="#DejaVuSans-2b"/>
      <use xlink:href="#DejaVuSans-30" transform="translate(83.789062 0)"/>
      <use xlink:href="#DejaVuSans-2e" transform="translate(147.412109 0)"/>
      <use xlink:href="#DejaVuSans-30" transform="translate(179.199219 0)"/>
      <use xlink:href="#DejaVuSans-35" transform="translate(242.822266 0)"/>
     </g>
    </g>
   </g>
   <g id="text_5">
    <g id="patch_25">
     <path d="M 663.014188 570.819856 
L 683.712938 570.819856 
Q 684.512938 570.819856 684.512938 570.019856 
L 684.512938 562.277356 
Q 684.512938 561.477356 683.712938 561.477356 
L 663.014188 561.477356 
Q 662.214188 561.477356 662.214188 562.277356 
L 662.214188 570.019856 
Q 662.214188 570.819856 663.014188 570.819856 
z
" clip-path="url(#pe7e74593b4)" style="fill: #ffffff; opacity: 0.6"/>
    </g>
    <g clip-path="url(#pe7e74593b4)">
     <!-- -0.10 -->
     <g transform="translate(663.014188 568.356106) scale(0.08 -0.08)">
      <defs>
       <path id="DejaVuSans-2d" d="M 313 2009 
L 1997 2009 
L 1997 1497 
L 313 1497 
L 313 2009 
z
" transform="scale(0.015625)"/>
       <path id="DejaVuSans-31" d="M 794 531 
L 1825 531 
L 1825 4091 
L 703 3866 
L 703 4441 
L 1819 4666 
L 2450 4666 
L 2450 531 
L 3481 531 
L 3481 0 
L 794 0 
L 794 531 
z
" transform="scale(0.015625)"/>
      </defs>
      <use xlink:href="#DejaVuSans-2d"/>
      <use xlink:href="#DejaVuSans-30" transform="translate(36.083984 0)"/>
      <use xlink:href="#DejaVuSans-2e" transform="translate(99.707031 0)"/>
      <use xlink:href="#DejaVuSans-31" transform="translate(131.494141 0)"/>
      <use xlink:href="#DejaVuSans-30" transform="translate(195.117188 0)"/>
     </g>
    </g>
   </g>
   <g id="text_6">
    <g id="patch_26">
     <path d="M 883.984417 703.623588 
L 908.500667 703.623588 
Q 909.300667 703.623588 909.300667 702.823588 
L 909.300667 695.081088 
Q 909.300667 694.281088 908.500667 694.281088 
L 883.984417 694.281088 
Q 883.184417 694.281088 883.184417 695.081088 
L 883.184417 702.823588 
Q 883.184417 703.623588 883.984417 703.623588 
z
" clip-path="url(#pe7e74593b4)" style="fill: #ffffff; opacity: 0.6"/>
    </g>
    <g clip-path="url(#pe7e74593b4)">
     <!-- +0.06 -->
     <g transform="translate(883.984417 701.159838) scale(0.08 -0.08)">
      <use xlink:href="#DejaVuSans-2b"/>
      <use xlink:href="#DejaVuSans-30" transform="translate(83.789062 0)"/>
      <use xlink:href="#DejaVuSans-2e" transform="translate(147.412109 0)"/>
      <use xlink:href="#DejaVuSans-30" transform="translate(179.199219 0)"/>
      <use xlink:href="#DejaVuSans-36" transform="translate(242.822266 0)"/>
     </g>
    </g>
   </g>
   <g id="text_7">
    <g id="patch_27">
     <path d="M 680.362541 501.709142 
L 704.878791 501.709142 
Q 705.678791 501.709142 705.678791 500.909142 
L 705.678791 493.166642 
Q 705.678791 492.366642 704.878791 492.366642 
L 680.362541 492.366642 
Q 679.562541 492.366642 679.562541 493.166642 
L 679.562541 500.909142 
Q 679.562541 501.709142 680.362541 501.709142 
z
" clip-path="url(#pe7e74593b4)" style="fill: #ffffff; opacity: 0.6"/>
    </g>
    <g clip-path="url(#pe7e74593b4)">
     <!-- +0.20 -->
     <g transform="translate(680.362541 499.245392) scale(0.08 -0.08)">
      <defs>
       <path id="DejaVuSans-32" d="M 1228 531 
L 3431 531 
L 3431 0 
L 469 0 
L 469 531 
Q 828 903 1448 1529 
Q 2069 2156 2228 2338 
Q 2531 2678 2651 2914 
Q 2772 3150 2772 3378 
Q 2772 3750 2511 3984 
Q 2250 4219 1831 4219 
Q 1534 4219 1204 4116 
Q 875 4013 500 3803 
L 500 4441 
Q 881 4594 1212 4672 
Q 1544 4750 1819 4750 
Q 2544 4750 2975 4387 
Q 3406 4025 3406 3419 
Q 3406 3131 3298 2873 
Q 3191 2616 2906 2266 
Q 2828 2175 2409 1742 
Q 1991 1309 1228 531 
z
" transform="scale(0.015625)"/>
      </defs>
      <use xlink:href="#DejaVuSans-2b"/>
      <use xlink:href="#DejaVuSans-30" transform="translate(83.789062 0)"/>
      <use xlink:href="#DejaVuSans-2e" transform="translate(147.412109 0)"/>
      <use xlink:href="#DejaVuSans-32" transform="translate(179.199219 0)"/>
      <use xlink:href="#DejaVuSans-30" transform="translate(242.822266 0)"/>
     </g>
    </g>
   </g>
   <g id="text_8">
    <g id="patch_28">
     <path d="M 856.917169 546.762124 
L 881.433419 546.762124 
Q 882.233419 546.762124 882.233419 545.962124 
L 882.233419 538.219624 
Q 882.233419 537.419624 881.433419 537.419624 
L 856.917169 537.419624 
Q 856.117169 537.419624 856.117169 538.219624 
L 856.117169 545.962124 
Q 856.117169 546.762124 856.917169 546.762124 
z
" clip-path="url(#pe7e74593b4)" style="fill: #ffffff; opacity: 0.6"/>
    </g>
    <g clip-path="url(#pe7e74593b4)">
     <!-- +0.11 -->
     <g transform="translate(856.917169 544.298374) scale(0.08 -0.08)">
      <use xlink:href="#DejaVuSans-2b"/>
      <use xlink:href="#DejaVuSans-30" transform="translate(83.789062 0)"/>
      <use xlink:href="#DejaVuSans-2e" transform="translate(147.412109 0)"/>
      <use xlink:href="#DejaVuSans-31" transform="translate(179.199219 0)"/>
      <use xlink:href="#DejaVuSans-31" transform="translate(242.822266 0)"/>
     </g>
    </g>
   </g>
   <g id="text_9">
    <g id="patch_29">
     <path d="M 795.403663 607.604197 
L 819.919913 607.604197 
Q 820.719913 607.604197 820.719913 606.804197 
L 820.719913 599.061697 
Q 820.719913 598.261697 819.919913 598.261697 
L 795.403663 598.261697 
Q 794.603663 598.261697 794.603663 599.061697 
L 794.603663 606.804197 
Q 794.603663 607.604197 795.403663 607.604197 
z
" clip-path="url(#pe7e74593b4)" style="fill: #ffffff; opacity: 0.6"/>
    </g>
    <g clip-path="url(#pe7e74593b4)">
     <!-- +0.07 -->
     <g transform="translate(795.403663 605.140447) scale(0.08 -0.08)">
      <defs>
       <path id="DejaVuSans-37" d="M 525 4666 
L 3525 4666 
L 3525 4397 
L 1831 0 
L 1172 0 
L 2766 4134 
L 525 4134 
L 525 4666 
z
" transform="scale(0.015625)"/>
      </defs>
      <use xlink:href="#DejaVuSans-2b"/>
      <use xlink:href="#DejaVuSans-30" transform="translate(83.789062 0)"/>
      <use xlink:href="#DejaVuSans-2e" transform="translate(147.412109 0)"/>
      <use xlink:href="#DejaVuSans-30" transform="translate(179.199219 0)"/>
      <use xlink:href="#DejaVuSans-37" transform="translate(242.822266 0)"/>
     </g>
    </g>
   </g>
   <g id="text_10">
    <g id="patch_30">
     <path d="M 759.660683 319.344854 
L 784.176933 319.344854 
Q 784.976933 319.344854 784.976933 318.544854 
L 784.976933 310.802354 
Q 784.976933 310.002354 784.176933 310.002354 
L 759.660683 310.002354 
Q 758.860683 310.002354 758.860683 310.802354 
L 758.860683 318.544854 
Q 758.860683 319.344854 759.660683 319.344854 
z
" clip-path="url(#pe7e74593b4)" style="fill: #ffffff; opacity: 0.6"/>
    </g>
    <g clip-path="url(#pe7e74593b4)">
     <!-- +0.13 -->
     <g transform="translate(759.660683 316.881104) scale(0.08 -0.08)">
      <defs>
       <path id="DejaVuSans-33" d="M 2597 2516 
Q 3050 2419 3304 2112 
Q 3559 1806 3559 1356 
Q 3559 666 3084 287 
Q 2609 -91 1734 -91 
Q 1441 -91 1130 -33 
Q 819 25 488 141 
L 488 750 
Q 750 597 1062 519 
Q 1375 441 1716 441 
Q 2309 441 2620 675 
Q 2931 909 2931 1356 
Q 2931 1769 2642 2001 
Q 2353 2234 1838 2234 
L 1294 2234 
L 1294 2753 
L 1863 2753 
Q 2328 2753 2575 2939 
Q 2822 3125 2822 3475 
Q 2822 3834 2567 4026 
Q 2313 4219 1838 4219 
Q 1578 4219 1281 4162 
Q 984 4106 628 3988 
L 628 4550 
Q 988 4650 1302 4700 
Q 1616 4750 1894 4750 
Q 2613 4750 3031 4423 
Q 3450 4097 3450 3541 
Q 3450 3153 3228 2886 
Q 3006 2619 2597 2516 
z
" transform="scale(0.015625)"/>
      </defs>
      <use xlink:href="#DejaVuSans-2b"/>
      <use xlink:href="#DejaVuSans-30" transform="translate(83.789062 0)"/>
      <use xlink:href="#DejaVuSans-2e" transform="translate(147.412109 0)"/>
      <use xlink:href="#DejaVuSans-31" transform="translate(179.199219 0)"/>
      <use xlink:href="#DejaVuSans-33" transform="translate(242.822266 0)"/>
     </g>
    </g>
   </g>
   <g id="text_11">
    <g id="patch_31">
     <path d="M 685.147616 283.580405 
L 709.663866 283.580405 
Q 710.463866 283.580405 710.463866 282.780405 
L 710.463866 275.037905 
Q 710.463866 274.237905 709.663866 274.237905 
L 685.147616 274.237905 
Q 684.347616 274.237905 684.347616 275.037905 
L 684.347616 282.780405 
Q 684.347616 283.580405 685.147616 283.580405 
z
" clip-path="url(#pe7e74593b4)" style="fill: #ffffff; opacity: 0.6"/>
    </g>
    <g clip-path="url(#pe7e74593b4)">
     <!-- +0.14 -->
     <g transform="translate(685.147616 281.116655) scale(0.08 -0.08)">
      <use xlink:href="#DejaVuSans-2b"/>
      <use xlink:href="#DejaVuSans-30" transform="translate(83.789062 0)"/>
      <use xlink:href="#DejaVuSans-2e" transform="translate(147.412109 0)"/>
      <use xlink:href="#DejaVuSans-31" transform="translate(179.199219 0)"/>
      <use xlink:href="#DejaVuSans-34" transform="translate(242.822266 0)"/>
     </g>
    </g>
   </g>
   <g id="text_12">
    <g id="patch_32">
     <path d="M 912.780248 586.287971 
L 937.296498 586.287971 
Q 938.096498 586.287971 938.096498 585.487971 
L 938.096498 577.745471 
Q 938.096498 576.945471 937.296498 576.945471 
L 912.780248 576.945471 
Q 911.980248 576.945471 911.980248 577.745471 
L 911.980248 585.487971 
Q 911.980248 586.287971 912.780248 586.287971 
z
" clip-path="url(#pe7e74593b4)" style="fill: #ffffff; opacity: 0.6"/>
    </g>
    <g clip-path="url(#pe7e74593b4)">
     <!-- +0.08 -->
     <g transform="translate(912.780248 583.824221) scale(0.08 -0.08)">
      <use xlink:href="#DejaVuSans-2b"/>
      <use xlink:href="#DejaVuSans-30" transform="translate(83.789062 0)"/>
      <use xlink:href="#DejaVuSans-2e" transform="translate(147.412109 0)"/>
      <use xlink:href="#DejaVuSans-30" transform="translate(179.199219 0)"/>
      <use xlink:href="#DejaVuSans-38" transform="translate(242.822266 0)"/>
     </g>
    </g>
   </g>
   <g id="text_13">
    <g id="patch_33">
     <path d="M 379.417227 720.30573 
L 403.933477 720.30573 
Q 404.733477 720.30573 404.733477 719.50573 
L 404.733477 711.76323 
Q 404.733477 710.96323 403.933477 710.96323 
L 379.417227 710.96323 
Q 378.617227 710.96323 378.617227 711.76323 
L 378.617227 719.50573 
Q 378.617227 720.30573 379.417227 720.30573 
z
" clip-path="url(#pe7e74593b4)" style="fill: #ffffff; opacity: 0.6"/>
    </g>
    <g clip-path="url(#pe7e74593b4)">
     <!-- +0.10 -->
     <g transform="translate(379.417227 717.84198) scale(0.08 -0.08)">
      <use xlink:href="#DejaVuSans-2b"/>
      <use xlink:href="#DejaVuSans-30" transform="translate(83.789062 0)"/>
      <use xlink:href="#DejaVuSans-2e" transform="translate(147.412109 0)"/>
      <use xlink:href="#DejaVuSans-31" transform="translate(179.199219 0)"/>
      <use xlink:href="#DejaVuSans-30" transform="translate(242.822266 0)"/>
     </g>
    </g>
   </g>
   <g id="text_14">
    <g id="patch_34">
     <path d="M 296.112992 541.057225 
L 320.629242 541.057225 
Q 321.429242 541.057225 321.429242 540.257225 
L 321.429242 532.514725 
Q 321.429242 531.714725 320.629242 531.714725 
L 296.112992 531.714725 
Q 295.312992 531.714725 295.312992 532.514725 
L 295.312992 540.257225 
Q 295.312992 541.057225 296.112992 541.057225 
z
" clip-path="url(#pe7e74593b4)" style="fill: #ffffff; opacity: 0.6"/>
    </g>
    <g clip-path="url(#pe7e74593b4)">
     <!-- +0.13 -->
     <g transform="translate(296.112992 538.593475) scale(0.08 -0.08)">
      <use xlink:href="#DejaVuSans-2b"/>
      <use xlink:href="#DejaVuSans-30" transform="translate(83.789062 0)"/>
      <use xlink:href="#DejaVuSans-2e" transform="translate(147.412109 0)"/>
      <use xlink:href="#DejaVuSans-31" transform="translate(179.199219 0)"/>
      <use xlink:href="#DejaVuSans-33" transform="translate(242.822266 0)"/>
     </g>
    </g>
   </g>
   <g id="text_15">
    <g id="patch_35">
     <path d="M 337.37107 301.417856 
L 361.88732 301.417856 
Q 362.68732 301.417856 362.68732 300.617856 
L 362.68732 292.875356 
Q 362.68732 292.075356 361.88732 292.075356 
L 337.37107 292.075356 
Q 336.57107 292.075356 336.57107 292.875356 
L 336.57107 300.617856 
Q 336.57107 301.417856 337.37107 301.417856 
z
" clip-path="url(#pe7e74593b4)" style="fill: #ffffff; opacity: 0.6"/>
    </g>
    <g clip-path="url(#pe7e74593b4)">
     <!-- +0.17 -->
     <g transform="translate(337.37107 298.954106) scale(0.08 -0.08)">
      <use xlink:href="#DejaVuSans-2b"/>
      <use xlink:href="#DejaVuSans-30" transform="translate(83.789062 0)"/>
      <use xlink:href="#DejaVuSans-2e" transform="translate(147.412109 0)"/>
      <use xlink:href="#DejaVuSans-31" transform="translate(179.199219 0)"/>
      <use xlink:href="#DejaVuSans-37" transform="translate(242.822266 0)"/>
     </g>
    </g>
   </g>
   <g id="text_16">
    <g id="patch_36">
     <path d="M 498.622291 408.722286 
L 523.138541 408.722286 
Q 523.938541 408.722286 523.938541 407.922286 
L 523.938541 400.179786 
Q 523.938541 399.379786 523.138541 399.379786 
L 498.622291 399.379786 
Q 497.822291 399.379786 497.822291 400.179786 
L 497.822291 407.922286 
Q 497.822291 408.722286 498.622291 408.722286 
z
" clip-path="url(#pe7e74593b4)" style="fill: #ffffff; opacity: 0.6"/>
    </g>
    <g clip-path="url(#pe7e74593b4)">
     <!-- +0.13 -->
     <g transform="translate(498.622291 406.258536) scale(0.08 -0.08)">
      <use xlink:href="#DejaVuSans-2b"/>
      <use xlink:href="#DejaVuSans-30" transform="translate(83.789062 0)"/>
      <use xlink:href="#DejaVuSans-2e" transform="translate(147.412109 0)"/>
      <use xlink:href="#DejaVuSans-31" transform="translate(179.199219 0)"/>
      <use xlink:href="#DejaVuSans-33" transform="translate(242.822266 0)"/>
     </g>
    </g>
   </g>
   <g id="text_17">
    <g id="patch_37">
     <path d="M 598.903028 525.833198 
L 623.419278 525.833198 
Q 624.219278 525.833198 624.219278 525.033198 
L 624.219278 517.290698 
Q 624.219278 516.490698 623.419278 516.490698 
L 598.903028 516.490698 
Q 598.103028 516.490698 598.103028 517.290698 
L 598.103028 525.033198 
Q 598.103028 525.833198 598.903028 525.833198 
z
" clip-path="url(#pe7e74593b4)" style="fill: #ffffff; opacity: 0.6"/>
    </g>
    <g clip-path="url(#pe7e74593b4)">
     <!-- +0.08 -->
     <g transform="translate(598.903028 523.369448) scale(0.08 -0.08)">
      <use xlink:href="#DejaVuSans-2b"/>
      <use xlink:href="#DejaVuSans-30" transform="translate(83.789062 0)"/>
      <use xlink:href="#DejaVuSans-2e" transform="translate(147.412109 0)"/>
      <use xlink:href="#DejaVuSans-30" transform="translate(179.199219 0)"/>
      <use xlink:href="#DejaVuSans-38" transform="translate(242.822266 0)"/>
     </g>
    </g>
   </g>
   <g id="text_18">
    <g id="patch_38">
     <path d="M 563.851275 343.402775 
L 588.367525 343.402775 
Q 589.167525 343.402775 589.167525 342.602775 
L 589.167525 334.860275 
Q 589.167525 334.060275 588.367525 334.060275 
L 563.851275 334.060275 
Q 563.051275 334.060275 563.051275 334.860275 
L 563.051275 342.602775 
Q 563.051275 343.402775 563.851275 343.402775 
z
" clip-path="url(#pe7e74593b4)" style="fill: #ffffff; opacity: 0.6"/>
    </g>
    <g clip-path="url(#pe7e74593b4)">
     <!-- +0.19 -->
     <g transform="translate(563.851275 340.939025) scale(0.08 -0.08)">
      <defs>
       <path id="DejaVuSans-39" d="M 703 97 
L 703 672 
Q 941 559 1184 500 
Q 1428 441 1663 441 
Q 2288 441 2617 861 
Q 2947 1281 2994 2138 
Q 2813 1869 2534 1725 
Q 2256 1581 1919 1581 
Q 1219 1581 811 2004 
Q 403 2428 403 3163 
Q 403 3881 828 4315 
Q 1253 4750 1959 4750 
Q 2769 4750 3195 4129 
Q 3622 3509 3622 2328 
Q 3622 1225 3098 567 
Q 2575 -91 1691 -91 
Q 1453 -91 1209 -44 
Q 966 3 703 97 
z
M 1959 2075 
Q 2384 2075 2632 2365 
Q 2881 2656 2881 3163 
Q 2881 3666 2632 3958 
Q 2384 4250 1959 4250 
Q 1534 4250 1286 3958 
Q 1038 3666 1038 3163 
Q 1038 2656 1286 2365 
Q 1534 2075 1959 2075 
z
" transform="scale(0.015625)"/>
      </defs>
      <use xlink:href="#DejaVuSans-2b"/>
      <use xlink:href="#DejaVuSans-30" transform="translate(83.789062 0)"/>
      <use xlink:href="#DejaVuSans-2e" transform="translate(147.412109 0)"/>
      <use xlink:href="#DejaVuSans-31" transform="translate(179.199219 0)"/>
      <use xlink:href="#DejaVuSans-39" transform="translate(242.822266 0)"/>
     </g>
    </g>
   </g>
   <g id="text_19">
    <g id="patch_39">
     <path d="M 676.472176 152.183252 
L 700.988426 152.183252 
Q 701.788426 152.183252 701.788426 151.383252 
L 701.788426 143.640752 
Q 701.788426 142.840752 700.988426 142.840752 
L 676.472176 142.840752 
Q 675.672176 142.840752 675.672176 143.640752 
L 675.672176 151.383252 
Q 675.672176 152.183252 676.472176 152.183252 
z
" clip-path="url(#pe7e74593b4)" style="fill: #ffffff; opacity: 0.6"/>
    </g>
    <g clip-path="url(#pe7e74593b4)">
     <!-- +0.31 -->
     <g transform="translate(676.472176 149.719502) scale(0.08 -0.08)">
      <use xlink:href="#DejaVuSans-2b"/>
      <use xlink:href="#DejaVuSans-30" transform="translate(83.789062 0)"/>
      <use xlink:href="#DejaVuSans-2e" transform="translate(147.412109 0)"/>
      <use xlink:href="#DejaVuSans-33" transform="translate(179.199219 0)"/>
      <use xlink:href="#DejaVuSans-31" transform="translate(242.822266 0)"/>
     </g>
    </g>
   </g>
   <g id="patch_40">
    <path d="M 364.82869 490.101867 
Q 259.62499 473.883592 154.663548 485.03284 
" clip-path="url(#pe7e74593b4)" style="fill: none; stroke-dasharray: 2.96,1.28; stroke-dashoffset: 0; stroke: #95a5a6; stroke-opacity: 0.7; stroke-width: 0.8; stroke-linecap: round"/>
    <path d="M 158.852427 486.599139 
L 154.663548 485.03284 
L 158.429914 482.621517 
z
" clip-path="url(#pe7e74593b4)" style="fill: #95a5a6; fill-opacity: 0.7; stroke-dasharray: 2.96,1.28; stroke-dashoffset: 0; stroke: #95a5a6; stroke-opacity: 0.7; stroke-width: 0.8; stroke-linecap: round"/>
   </g>
   <g id="patch_41">
    <path d="M 581.957175 538.78135 
Q 500.281446 507.197193 414.230382 496.812453 
" clip-path="url(#pe7e74593b4)" style="fill: none; stroke-dasharray: 2.96,1.28; stroke-dashoffset: 0; stroke: #95a5a6; stroke-opacity: 0.7; stroke-width: 0.8; stroke-linecap: round"/>
    <path d="M 417.961945 499.277294 
L 414.230382 496.812453 
L 418.441192 495.306107 
z
" clip-path="url(#pe7e74593b4)" style="fill: #95a5a6; fill-opacity: 0.7; stroke-dasharray: 2.96,1.28; stroke-dashoffset: 0; stroke: #95a5a6; stroke-opacity: 0.7; stroke-width: 0.8; stroke-linecap: round"/>
   </g>
   <g id="patch_42">
    <path d="M 581.081194 541.325643 
Q 371.386185 483.67364 154.837525 487.436886 
" clip-path="url(#pe7e74593b4)" style="fill: none; stroke-dasharray: 2.96,1.28; stroke-dashoffset: 0; stroke: #95a5a6; stroke-opacity: 0.7; stroke-width: 0.8; stroke-linecap: round"/>
    <path d="M 158.871673 489.367082 
L 154.837525 487.436886 
L 158.80217 485.367686 
z
" clip-path="url(#pe7e74593b4)" style="fill: #95a5a6; fill-opacity: 0.7; stroke-dasharray: 2.96,1.28; stroke-dashoffset: 0; stroke: #95a5a6; stroke-opacity: 0.7; stroke-width: 0.8; stroke-linecap: round"/>
   </g>
   <g id="patch_43">
    <path d="M 590.001221 528.372603 
Q 463.862028 362.142943 296.857414 238.529272 
" clip-path="url(#pe7e74593b4)" style="fill: none; stroke-dasharray: 2.96,1.28; stroke-dashoffset: 0; stroke: #95a5a6; stroke-opacity: 0.7; stroke-width: 0.8; stroke-linecap: round"/>
    <path d="M 298.882628 242.516565 
L 296.857414 238.529272 
L 301.262377 239.301476 
z
" clip-path="url(#pe7e74593b4)" style="fill: #95a5a6; fill-opacity: 0.7; stroke-dasharray: 2.96,1.28; stroke-dashoffset: 0; stroke: #95a5a6; stroke-opacity: 0.7; stroke-width: 0.8; stroke-linecap: round"/>
   </g>
   <g id="patch_44">
    <path d="M 585.147119 562.824496 
Q 488.753297 638.087608 415.984868 735.263179 
" clip-path="url(#pe7e74593b4)" style="fill: none; stroke-dasharray: 2.96,1.28; stroke-dashoffset: 0; stroke: #95a5a6; stroke-opacity: 0.7; stroke-width: 0.8; stroke-linecap: round"/>
    <path d="M 419.983374 733.260195 
L 415.984868 735.263179 
L 416.781584 730.862584 
z
" clip-path="url(#pe7e74593b4)" style="fill: #95a5a6; fill-opacity: 0.7; stroke-dasharray: 2.96,1.28; stroke-dashoffset: 0; stroke: #95a5a6; stroke-opacity: 0.7; stroke-width: 0.8; stroke-linecap: round"/>
   </g>
   <g id="patch_45">
    <path d="M 589.787536 528.528398 
Q 525.578898 446.925764 443.414344 384.911246 
" clip-path="url(#pe7e74593b4)" style="fill: none; stroke-dasharray: 2.96,1.28; stroke-dashoffset: 0; stroke: #95a5a6; stroke-opacity: 0.7; stroke-width: 0.8; stroke-linecap: round"/>
    <path d="M 445.402177 388.917306 
L 443.414344 384.911246 
L 447.811893 385.724616 
z
" clip-path="url(#pe7e74593b4)" style="fill: #95a5a6; fill-opacity: 0.7; stroke-dasharray: 2.96,1.28; stroke-dashoffset: 0; stroke: #95a5a6; stroke-opacity: 0.7; stroke-width: 0.8; stroke-linecap: round"/>
   </g>
   <g id="patch_46">
    <path d="M 610.994906 524.349812 
Q 633.984413 432.79919 633.348488 339.302888 
" clip-path="url(#pe7e74593b4)" style="fill: none; stroke-dasharray: 2.96,1.28; stroke-dashoffset: 0; stroke: #95a5a6; stroke-opacity: 0.7; stroke-width: 0.8; stroke-linecap: round"/>
    <path d="M 631.37574 343.316399 
L 633.348488 339.302888 
L 635.375648 343.289193 
z
" clip-path="url(#pe7e74593b4)" style="fill: #95a5a6; fill-opacity: 0.7; stroke-dasharray: 2.96,1.28; stroke-dashoffset: 0; stroke: #95a5a6; stroke-opacity: 0.7; stroke-width: 0.8; stroke-linecap: round"/>
   </g>
   <g id="patch_47">
    <path d="M 935.176007 628.614666 
Q 787.513595 568.315178 629.901759 550.589199 
" clip-path="url(#pe7e74593b4)" style="fill: none; stroke-dasharray: 2.96,1.28; stroke-dashoffset: 0; stroke: #95a5a6; stroke-opacity: 0.7; stroke-width: 0.8; stroke-linecap: round"/>
    <path d="M 633.653177 553.023715 
L 629.901759 550.589199 
L 634.100222 549.048775 
z
" clip-path="url(#pe7e74593b4)" style="fill: #95a5a6; fill-opacity: 0.7; stroke-dasharray: 2.96,1.28; stroke-dashoffset: 0; stroke: #95a5a6; stroke-opacity: 0.7; stroke-width: 0.8; stroke-linecap: round"/>
   </g>
   <g id="patch_48">
    <path d="M 966.921277 615.398398 
Q 1001.934548 524.551904 1012.856145 428.706394 
" clip-path="url(#pe7e74593b4)" style="fill: none; stroke-dasharray: 2.96,1.28; stroke-dashoffset: 0; stroke: #95a5a6; stroke-opacity: 0.7; stroke-width: 0.8; stroke-linecap: round"/>
    <path d="M 1010.416135 432.454241 
L 1012.856145 428.706394 
L 1014.390416 432.90711 
z
" clip-path="url(#pe7e74593b4)" style="fill: #95a5a6; fill-opacity: 0.7; stroke-dasharray: 2.96,1.28; stroke-dashoffset: 0; stroke: #95a5a6; stroke-opacity: 0.7; stroke-width: 0.8; stroke-linecap: round"/>
   </g>
   <g id="patch_49">
    <path d="M 933.298908 639.487954 
Q 670.744381 656.032419 424.787165 746.827992 
" clip-path="url(#pe7e74593b4)" style="fill: none; stroke-dasharray: 2.96,1.28; stroke-dashoffset: 0; stroke: #95a5a6; stroke-opacity: 0.7; stroke-width: 0.8; stroke-linecap: round"/>
    <path d="M 429.232265 747.318997 
L 424.787165 746.827992 
L 427.847029 743.566515 
z
" clip-path="url(#pe7e74593b4)" style="fill: #95a5a6; fill-opacity: 0.7; stroke-dasharray: 2.96,1.28; stroke-dashoffset: 0; stroke: #95a5a6; stroke-opacity: 0.7; stroke-width: 0.8; stroke-linecap: round"/>
   </g>
   <g id="patch_50">
    <path d="M 756.193981 443.906107 
Q 451.904322 418.701953 154.249058 482.603363 
" clip-path="url(#pe7e74593b4)" style="fill: none; stroke-dasharray: 2.96,1.28; stroke-dashoffset: 0; stroke: #95a5a6; stroke-opacity: 0.7; stroke-width: 0.8; stroke-linecap: round"/>
    <path d="M 158.579749 483.719208 
L 154.249058 482.603363 
L 157.740149 479.808317 
z
" clip-path="url(#pe7e74593b4)" style="fill: #95a5a6; fill-opacity: 0.7; stroke-dasharray: 2.96,1.28; stroke-dashoffset: 0; stroke: #95a5a6; stroke-opacity: 0.7; stroke-width: 0.8; stroke-linecap: round"/>
   </g>
   <g id="patch_51">
    <path d="M 805.070414 445.166975 
Q 900.757251 440.106332 991.261152 411.470562 
" clip-path="url(#pe7e74593b4)" style="fill: none; stroke-dasharray: 2.96,1.28; stroke-dashoffset: 0; stroke: #95a5a6; stroke-opacity: 0.7; stroke-width: 0.8; stroke-linecap: round"/>
    <path d="M 986.844167 410.770389 
L 991.261152 411.470562 
L 988.050822 414.584046 
z
" clip-path="url(#pe7e74593b4)" style="fill: #95a5a6; fill-opacity: 0.7; stroke-dasharray: 2.96,1.28; stroke-dashoffset: 0; stroke: #95a5a6; stroke-opacity: 0.7; stroke-width: 0.8; stroke-linecap: round"/>
   </g>
   <g id="patch_52">
    <path d="M 764.035104 464.117 
Q 665.465836 573.970512 600.536152 705.517376 
" clip-path="url(#pe7e74593b4)" style="fill: none; stroke-dasharray: 2.96,1.28; stroke-dashoffset: 0; stroke: #95a5a6; stroke-opacity: 0.7; stroke-width: 0.8; stroke-linecap: round"/>
    <path d="M 604.100009 702.815725 
L 600.536152 705.517376 
L 600.513145 701.0453 
z
" clip-path="url(#pe7e74593b4)" style="fill: #95a5a6; fill-opacity: 0.7; stroke-dasharray: 2.96,1.28; stroke-dashoffset: 0; stroke: #95a5a6; stroke-opacity: 0.7; stroke-width: 0.8; stroke-linecap: round"/>
   </g>
   <g id="patch_53">
    <path d="M 757.655141 437.484897 
Q 607.102989 382.917822 448.272681 371.481496 
" clip-path="url(#pe7e74593b4)" style="fill: none; stroke-dasharray: 2.96,1.28; stroke-dashoffset: 0; stroke: #95a5a6; stroke-opacity: 0.7; stroke-width: 0.8; stroke-linecap: round"/>
    <path d="M 452.118717 373.763602 
L 448.272681 371.481496 
L 452.405987 369.77393 
z
" clip-path="url(#pe7e74593b4)" style="fill: #95a5a6; fill-opacity: 0.7; stroke-dasharray: 2.96,1.28; stroke-dashoffset: 0; stroke: #95a5a6; stroke-opacity: 0.7; stroke-width: 0.8; stroke-linecap: round"/>
   </g>
   <g id="patch_54">
    <path d="M 764.78307 427.364435 
Q 714.990091 370.707997 653.867103 328.056608 
" clip-path="url(#pe7e74593b4)" style="fill: none; stroke-dasharray: 2.96,1.28; stroke-dashoffset: 0; stroke: #95a5a6; stroke-opacity: 0.7; stroke-width: 0.8; stroke-linecap: round"/>
    <path d="M 656.002926 331.985763 
L 653.867103 328.056608 
L 658.291921 328.705443 
z
" clip-path="url(#pe7e74593b4)" style="fill: #95a5a6; fill-opacity: 0.7; stroke-dasharray: 2.96,1.28; stroke-dashoffset: 0; stroke: #95a5a6; stroke-opacity: 0.7; stroke-width: 0.8; stroke-linecap: round"/>
   </g>
   <g id="patch_55">
    <path d="M 282.359283 247.327348 
Q 314.289021 366.532074 375.929533 472.408292 
" clip-path="url(#pe7e74593b4)" style="fill: none; stroke-dasharray: 2.96,1.28; stroke-dashoffset: 0; stroke: #95a5a6; stroke-opacity: 0.7; stroke-width: 0.8; stroke-linecap: round"/>
    <path d="M 375.645402 467.945191 
L 375.929533 472.408292 
L 372.188574 469.957736 
z
" clip-path="url(#pe7e74593b4)" style="fill: #95a5a6; fill-opacity: 0.7; stroke-dasharray: 2.96,1.28; stroke-dashoffset: 0; stroke: #95a5a6; stroke-opacity: 0.7; stroke-width: 0.8; stroke-linecap: round"/>
   </g>
   <g id="patch_56">
    <path d="M 261.44705 243.037007 
Q 184.85121 345.808116 138.426895 464.320145 
" clip-path="url(#pe7e74593b4)" style="fill: none; stroke-dasharray: 2.96,1.28; stroke-dashoffset: 0; stroke: #95a5a6; stroke-opacity: 0.7; stroke-width: 0.8; stroke-linecap: round"/>
    <path d="M 141.748075 461.325189 
L 138.426895 464.320145 
L 138.023638 459.866228 
z
" clip-path="url(#pe7e74593b4)" style="fill: #95a5a6; fill-opacity: 0.7; stroke-dasharray: 2.96,1.28; stroke-dashoffset: 0; stroke: #95a5a6; stroke-opacity: 0.7; stroke-width: 0.8; stroke-linecap: round"/>
   </g>
   <g id="patch_57">
    <path d="M 991.286054 408.029299 
Q 799.647325 446.318437 627.072121 536.098486 
" clip-path="url(#pe7e74593b4)" style="fill: none; stroke-dasharray: 2.96,1.28; stroke-dashoffset: 0; stroke: #95a5a6; stroke-opacity: 0.7; stroke-width: 0.8; stroke-linecap: round"/>
    <path d="M 631.543681 536.026674 
L 627.072121 536.098486 
L 629.697607 532.478152 
z
" clip-path="url(#pe7e74593b4)" style="fill: #95a5a6; fill-opacity: 0.7; stroke-dasharray: 2.96,1.28; stroke-dashoffset: 0; stroke: #95a5a6; stroke-opacity: 0.7; stroke-width: 0.8; stroke-linecap: round"/>
   </g>
   <g id="patch_58">
    <path d="M 991.380518 398.361063 
Q 721.608788 342.99235 448.203317 367.49067 
" clip-path="url(#pe7e74593b4)" style="fill: none; stroke-dasharray: 2.96,1.28; stroke-dashoffset: 0; stroke: #95a5a6; stroke-opacity: 0.7; stroke-width: 0.8; stroke-linecap: round"/>
    <path d="M 452.365849 369.125702 
L 448.203317 367.49067 
L 452.008862 365.141664 
z
" clip-path="url(#pe7e74593b4)" style="fill: #95a5a6; fill-opacity: 0.7; stroke-dasharray: 2.96,1.28; stroke-dashoffset: 0; stroke: #95a5a6; stroke-opacity: 0.7; stroke-width: 0.8; stroke-linecap: round"/>
   </g>
   <g id="patch_59">
    <path d="M 386.321358 736.181124 
Q 284.106795 602.780948 149.970281 503.026227 
" clip-path="url(#pe7e74593b4)" style="fill: none; stroke-dasharray: 2.96,1.28; stroke-dashoffset: 0; stroke: #95a5a6; stroke-opacity: 0.7; stroke-width: 0.8; stroke-linecap: round"/>
    <path d="M 151.986491 507.018081 
L 149.970281 503.026227 
L 154.37349 503.808371 
z
" clip-path="url(#pe7e74593b4)" style="fill: #95a5a6; fill-opacity: 0.7; stroke-dasharray: 2.96,1.28; stroke-dashoffset: 0; stroke: #95a5a6; stroke-opacity: 0.7; stroke-width: 0.8; stroke-linecap: round"/>
   </g>
   <g id="patch_60">
    <path d="M 378.381171 746.440588 
Q 300.80129 716.073786 219.047364 705.641522 
" clip-path="url(#pe7e74593b4)" style="fill: none; stroke-dasharray: 2.96,1.28; stroke-dashoffset: 0; stroke: #95a5a6; stroke-opacity: 0.7; stroke-width: 0.8; stroke-linecap: round"/>
    <path d="M 222.762031 708.131752 
L 219.047364 705.641522 
L 223.268348 704.163926 
z
" clip-path="url(#pe7e74593b4)" style="fill: #95a5a6; fill-opacity: 0.7; stroke-dasharray: 2.96,1.28; stroke-dashoffset: 0; stroke: #95a5a6; stroke-opacity: 0.7; stroke-width: 0.8; stroke-linecap: round"/>
   </g>
   <g id="patch_61">
    <path d="M 810.946657 753.941919 
Q 518.496313 683.76871 219.148635 701.237934 
" clip-path="url(#pe7e74593b4)" style="fill: none; stroke-dasharray: 2.96,1.28; stroke-dashoffset: 0; stroke: #95a5a6; stroke-opacity: 0.7; stroke-width: 0.8; stroke-linecap: round"/>
    <path d="M 223.258358 703.001503 
L 219.148635 701.237934 
L 223.025324 699.008297 
z
" clip-path="url(#pe7e74593b4)" style="fill: #95a5a6; fill-opacity: 0.7; stroke-dasharray: 2.96,1.28; stroke-dashoffset: 0; stroke: #95a5a6; stroke-opacity: 0.7; stroke-width: 0.8; stroke-linecap: round"/>
   </g>
   <g id="patch_62">
    <path d="M 576.492237 707.674539 
Q 505.28172 597.574075 408.117993 510.864618 
" clip-path="url(#pe7e74593b4)" style="fill: none; stroke-dasharray: 2.96,1.28; stroke-dashoffset: 0; stroke: #95a5a6; stroke-opacity: 0.7; stroke-width: 0.8; stroke-linecap: round"/>
    <path d="M 409.770757 515.020142 
L 408.117993 510.864618 
L 412.43407 512.035722 
z
" clip-path="url(#pe7e74593b4)" style="fill: #95a5a6; fill-opacity: 0.7; stroke-dasharray: 2.96,1.28; stroke-dashoffset: 0; stroke: #95a5a6; stroke-opacity: 0.7; stroke-width: 0.8; stroke-linecap: round"/>
   </g>
   <g id="patch_63">
    <path d="M 413.487702 392.515142 
Q 399.055647 430.164661 392.486814 469.040009 
" clip-path="url(#pe7e74593b4)" style="fill: none; stroke-dasharray: 2.96,1.28; stroke-dashoffset: 0; stroke: #95a5a6; stroke-opacity: 0.7; stroke-width: 0.8; stroke-linecap: round"/>
    <path d="M 395.125299 465.429137 
L 392.486814 469.040009 
L 391.181208 464.762698 
z
" clip-path="url(#pe7e74593b4)" style="fill: #95a5a6; fill-opacity: 0.7; stroke-dasharray: 2.96,1.28; stroke-dashoffset: 0; stroke: #95a5a6; stroke-opacity: 0.7; stroke-width: 0.8; stroke-linecap: round"/>
   </g>
   <g id="patch_64">
    <path d="M 399.120388 375.640381 
Q 268.076869 408.834458 151.368485 475.260266 
" clip-path="url(#pe7e74593b4)" style="fill: none; stroke-dasharray: 2.96,1.28; stroke-dashoffset: 0; stroke: #95a5a6; stroke-opacity: 0.7; stroke-width: 0.8; stroke-linecap: round"/>
    <path d="M 155.834154 475.019839 
L 151.368485 475.260266 
L 153.855545 471.543475 
z
" clip-path="url(#pe7e74593b4)" style="fill: #95a5a6; fill-opacity: 0.7; stroke-dasharray: 2.96,1.28; stroke-dashoffset: 0; stroke: #95a5a6; stroke-opacity: 0.7; stroke-width: 0.8; stroke-linecap: round"/>
   </g>
   <g id="patch_65">
    <path d="M 417.93323 393.890079 
Q 384.737864 561.295022 398.698515 730.490001 
" clip-path="url(#pe7e74593b4)" style="fill: none; stroke-dasharray: 2.96,1.28; stroke-dashoffset: 0; stroke: #95a5a6; stroke-opacity: 0.7; stroke-width: 0.8; stroke-linecap: round"/>
    <path d="M 400.36281 726.339083 
L 398.698515 730.490001 
L 396.376357 726.668014 
z
" clip-path="url(#pe7e74593b4)" style="fill: #95a5a6; fill-opacity: 0.7; stroke-dasharray: 2.96,1.28; stroke-dashoffset: 0; stroke: #95a5a6; stroke-opacity: 0.7; stroke-width: 0.8; stroke-linecap: round"/>
   </g>
   <g id="patch_66">
    <path d="M 610.186441 304.456052 
Q 460.892692 243.744963 301.592759 226.124722 
" clip-path="url(#pe7e74593b4)" style="fill: none; stroke-dasharray: 2.96,1.28; stroke-dashoffset: 0; stroke: #95a5a6; stroke-opacity: 0.7; stroke-width: 0.8; stroke-linecap: round"/>
    <path d="M 305.348632 228.552359 
L 301.592759 226.124722 
L 305.788392 224.576606 
z
" clip-path="url(#pe7e74593b4)" style="fill: #95a5a6; fill-opacity: 0.7; stroke-dasharray: 2.96,1.28; stroke-dashoffset: 0; stroke: #95a5a6; stroke-opacity: 0.7; stroke-width: 0.8; stroke-linecap: round"/>
   </g>
   <g id="patch_67">
    <path d="M 608.462252 316.838505 
Q 524.266144 328.456706 446.303919 359.994207 
" clip-path="url(#pe7e74593b4)" style="fill: none; stroke-dasharray: 2.96,1.28; stroke-dashoffset: 0; stroke: #95a5a6; stroke-opacity: 0.7; stroke-width: 0.8; stroke-linecap: round"/>
    <path d="M 450.76202 360.348246 
L 446.303919 359.994207 
L 449.26201 356.64015 
z
" clip-path="url(#pe7e74593b4)" style="fill: #95a5a6; fill-opacity: 0.7; stroke-dasharray: 2.96,1.28; stroke-dashoffset: 0; stroke: #95a5a6; stroke-opacity: 0.7; stroke-width: 0.8; stroke-linecap: round"/>
   </g>
   <g id="patch_68">
    <path d="M 738.803087 181.60233 
Q 516.863065 168.146695 301.029092 217.716882 
" clip-path="url(#pe7e74593b4)" style="fill: none; stroke-dasharray: 2.96,1.28; stroke-dashoffset: 0; stroke: #95a5a6; stroke-opacity: 0.7; stroke-width: 0.8; stroke-linecap: round"/>
    <path d="M 305.375276 218.770771 
L 301.029092 217.716882 
L 304.479914 214.872268 
z
" clip-path="url(#pe7e74593b4)" style="fill: #95a5a6; fill-opacity: 0.7; stroke-dasharray: 2.96,1.28; stroke-dashoffset: 0; stroke: #95a5a6; stroke-opacity: 0.7; stroke-width: 0.8; stroke-linecap: round"/>
   </g>
   <g id="patch_69">
    <path d="M 740.254062 191.737253 
Q 579.9035 252.555187 443.14204 354.542715 
" clip-path="url(#pe7e74593b4)" style="fill: none; stroke-dasharray: 2.96,1.28; stroke-dashoffset: 0; stroke: #95a5a6; stroke-opacity: 0.7; stroke-width: 0.8; stroke-linecap: round"/>
    <path d="M 447.544213 353.754759 
L 443.14204 354.542715 
L 445.152979 350.548203 
z
" clip-path="url(#pe7e74593b4)" style="fill: #95a5a6; fill-opacity: 0.7; stroke-dasharray: 2.96,1.28; stroke-dashoffset: 0; stroke: #95a5a6; stroke-opacity: 0.7; stroke-width: 0.8; stroke-linecap: round"/>
   </g>
   <g id="patch_70">
    <path d="M 743.714836 198.057693 
Q 689.945785 240.540681 648.090403 293.665589 
" clip-path="url(#pe7e74593b4)" style="fill: none; stroke-dasharray: 2.96,1.28; stroke-dashoffset: 0; stroke: #95a5a6; stroke-opacity: 0.7; stroke-width: 0.8; stroke-linecap: round"/>
    <path d="M 652.136862 291.761339 
L 648.090403 293.665589 
L 648.994878 289.285872 
z
" clip-path="url(#pe7e74593b4)" style="fill: #95a5a6; fill-opacity: 0.7; stroke-dasharray: 2.96,1.28; stroke-dashoffset: 0; stroke: #95a5a6; stroke-opacity: 0.7; stroke-width: 0.8; stroke-linecap: round"/>
   </g>
   <g id="patch_71">
    <path d="M 590.078929 115.932367 
Q 437.458698 144.065986 298.994375 212.148865 
" clip-path="url(#pe7e74593b4)" style="fill: none; stroke-dasharray: 2.96,1.28; stroke-dashoffset: 0; stroke: #95a5a6; stroke-opacity: 0.7; stroke-width: 0.8; stroke-linecap: round"/>
    <path d="M 303.466412 212.178659 
L 298.994375 212.148865 
L 301.701432 208.589112 
z
" clip-path="url(#pe7e74593b4)" style="fill: #95a5a6; fill-opacity: 0.7; stroke-dasharray: 2.96,1.28; stroke-dashoffset: 0; stroke: #95a5a6; stroke-opacity: 0.7; stroke-width: 0.8; stroke-linecap: round"/>
   </g>
   <g id="patch_72">
    <path d="M 631.632706 128.969595 
Q 793.611576 286.702247 992.799934 391.759601 
" clip-path="url(#pe7e74593b4)" style="fill: none; stroke-dasharray: 2.96,1.28; stroke-dashoffset: 0; stroke: #95a5a6; stroke-opacity: 0.7; stroke-width: 0.8; stroke-linecap: round"/>
    <path d="M 990.194915 388.124511 
L 992.799934 391.759601 
L 988.32885 391.662562 
z
" clip-path="url(#pe7e74593b4)" style="fill: #95a5a6; fill-opacity: 0.7; stroke-dasharray: 2.96,1.28; stroke-dashoffset: 0; stroke: #95a5a6; stroke-opacity: 0.7; stroke-width: 0.8; stroke-linecap: round"/>
   </g>
   <g id="patch_73">
    <path d="M 596.908684 129.08621 
Q 500.800353 227.663971 434.908246 347.527077 
" clip-path="url(#pe7e74593b4)" style="fill: none; stroke-dasharray: 2.96,1.28; stroke-dashoffset: 0; stroke: #95a5a6; stroke-opacity: 0.7; stroke-width: 0.8; stroke-linecap: round"/>
    <path d="M 438.587822 344.985282 
L 434.908246 347.527077 
L 435.082556 343.058339 
z
" clip-path="url(#pe7e74593b4)" style="fill: #95a5a6; fill-opacity: 0.7; stroke-dasharray: 2.96,1.28; stroke-dashoffset: 0; stroke: #95a5a6; stroke-opacity: 0.7; stroke-width: 0.8; stroke-linecap: round"/>
   </g>
   <g id="PathCollection_1">
    <defs>
     <path id="m517829d47c" d="M 0 24.494897 
C 6.496123 24.494897 12.727056 21.913961 17.320508 17.320508 
C 21.913961 12.727056 24.494897 6.496123 24.494897 0 
C 24.494897 -6.496123 21.913961 -12.727056 17.320508 -17.320508 
C 12.727056 -21.913961 6.496123 -24.494897 0 -24.494897 
C -6.496123 -24.494897 -12.727056 -21.913961 -17.320508 -17.320508 
C -21.913961 -12.727056 -24.494897 -6.496123 -24.494897 0 
C -24.494897 6.496123 -21.913961 12.727056 -17.320508 17.320508 
C -12.727056 21.913961 -6.496123 24.494897 0 24.494897 
z
" style="stroke: #34495e; stroke-width: 1.2"/>
    </defs>
    <g clip-path="url(#pe7e74593b4)">
     <use xlink:href="#m517829d47c" x="388.977223" y="494.187928" style="fill: #f7f9fa; stroke: #34495e; stroke-width: 1.2"/>
     <use xlink:href="#m517829d47c" x="604.646643" y="548.005653" style="fill: #f7f9fa; stroke: #34495e; stroke-width: 1.2"/>
     <use xlink:href="#m517829d47c" x="129.453292" y="488.072015" style="fill: #f7f9fa; stroke: #34495e; stroke-width: 1.2"/>
     <use xlink:href="#m517829d47c" x="193.808216" y="702.861194" style="fill: #f7f9fa; stroke: #34495e; stroke-width: 1.2"/>
     <use xlink:href="#m517829d47c" x="957.754153" y="638.110359" style="fill: #f7f9fa; stroke: #34495e; stroke-width: 1.2"/>
     <use xlink:href="#m517829d47c" x="780.595071" y="446.069911" style="fill: #f7f9fa; stroke: #34495e; stroke-width: 1.2"/>
     <use xlink:href="#m517829d47c" x="276.328721" y="223.584777" style="fill: #f7f9fa; stroke: #34495e; stroke-width: 1.2"/>
     <use xlink:href="#m517829d47c" x="1015.346708" y="403.439644" style="fill: #f7f9fa; stroke: #34495e; stroke-width: 1.2"/>
     <use xlink:href="#m517829d47c" x="401.026116" y="755.773286" style="fill: #f7f9fa; stroke: #34495e; stroke-width: 1.2"/>
     <use xlink:href="#m517829d47c" x="834.728614" y="759.796609" style="fill: #f7f9fa; stroke: #34495e; stroke-width: 1.2"/>
     <use xlink:href="#m517829d47c" x="589.542289" y="728.407753" style="fill: #f7f9fa; stroke: #34495e; stroke-width: 1.2"/>
     <use xlink:href="#m517829d47c" x="422.933194" y="369.911953" style="fill: #f7f9fa; stroke: #34495e; stroke-width: 1.2"/>
     <use xlink:href="#m517829d47c" x="632.779943" y="313.916855" style="fill: #f7f9fa; stroke: #34495e; stroke-width: 1.2"/>
     <use xlink:href="#m517829d47c" x="763.242359" y="183.274473" style="fill: #f7f9fa; stroke: #34495e; stroke-width: 1.2"/>
     <use xlink:href="#m517829d47c" x="614.216577" y="111.748732" style="fill: #f7f9fa; stroke: #34495e; stroke-width: 1.2"/>
    </g>
   </g>
   <g id="text_20">
    <g clip-path="url(#pe7e74593b4)">
     <!-- 42541 -->
     <g transform="translate(368.299098 497.775116) scale(0.13 -0.13)">
      <use xlink:href="#DejaVuSans-34"/>
      <use xlink:href="#DejaVuSans-32" transform="translate(63.623047 0)"/>
      <use xlink:href="#DejaVuSans-35" transform="translate(127.246094 0)"/>
      <use xlink:href="#DejaVuSans-34" transform="translate(190.869141 0)"/>
      <use xlink:href="#DejaVuSans-31" transform="translate(254.492188 0)"/>
     </g>
    </g>
   </g>
   <g id="text_21">
    <g clip-path="url(#pe7e74593b4)">
     <!-- 61970 -->
     <g transform="translate(583.968518 551.59284) scale(0.13 -0.13)">
      <use xlink:href="#DejaVuSans-36"/>
      <use xlink:href="#DejaVuSans-31" transform="translate(63.623047 0)"/>
      <use xlink:href="#DejaVuSans-39" transform="translate(127.246094 0)"/>
      <use xlink:href="#DejaVuSans-37" transform="translate(190.869141 0)"/>
      <use xlink:href="#DejaVuSans-30" transform="translate(254.492188 0)"/>
     </g>
    </g>
   </g>
   <g id="text_22">
    <g clip-path="url(#pe7e74593b4)">
     <!-- 65681 -->
     <g transform="translate(108.775167 491.659202) scale(0.13 -0.13)">
      <use xlink:href="#DejaVuSans-36"/>
      <use xlink:href="#DejaVuSans-35" transform="translate(63.623047 0)"/>
      <use xlink:href="#DejaVuSans-36" transform="translate(127.246094 0)"/>
      <use xlink:href="#DejaVuSans-38" transform="translate(190.869141 0)"/>
      <use xlink:href="#DejaVuSans-31" transform="translate(254.492188 0)"/>
     </g>
    </g>
   </g>
   <g id="text_23">
    <g clip-path="url(#pe7e74593b4)">
     <!-- 98755 -->
     <g transform="translate(173.130091 706.448382) scale(0.13 -0.13)">
      <use xlink:href="#DejaVuSans-39"/>
      <use xlink:href="#DejaVuSans-38" transform="translate(63.623047 0)"/>
      <use xlink:href="#DejaVuSans-37" transform="translate(127.246094 0)"/>
      <use xlink:href="#DejaVuSans-35" transform="translate(190.869141 0)"/>
      <use xlink:href="#DejaVuSans-35" transform="translate(254.492188 0)"/>
     </g>
    </g>
   </g>
   <g id="text_24">
    <g clip-path="url(#pe7e74593b4)">
     <!-- 33927 -->
     <g transform="translate(937.076028 641.697547) scale(0.13 -0.13)">
      <use xlink:href="#DejaVuSans-33"/>
      <use xlink:href="#DejaVuSans-33" transform="translate(63.623047 0)"/>
      <use xlink:href="#DejaVuSans-39" transform="translate(127.246094 0)"/>
      <use xlink:href="#DejaVuSans-32" transform="translate(190.869141 0)"/>
      <use xlink:href="#DejaVuSans-37" transform="translate(254.492188 0)"/>
     </g>
    </g>
   </g>
   <g id="text_25">
    <g clip-path="url(#pe7e74593b4)">
     <!-- 38326 -->
     <g transform="translate(759.916946 449.657098) scale(0.13 -0.13)">
      <use xlink:href="#DejaVuSans-33"/>
      <use xlink:href="#DejaVuSans-38" transform="translate(63.623047 0)"/>
      <use xlink:href="#DejaVuSans-33" transform="translate(127.246094 0)"/>
      <use xlink:href="#DejaVuSans-32" transform="translate(190.869141 0)"/>
      <use xlink:href="#DejaVuSans-36" transform="translate(254.492188 0)"/>
     </g>
    </g>
   </g>
   <g id="text_26">
    <g clip-path="url(#pe7e74593b4)">
     <!-- 64587 -->
     <g transform="translate(255.650596 227.171965) scale(0.13 -0.13)">
      <use xlink:href="#DejaVuSans-36"/>
      <use xlink:href="#DejaVuSans-34" transform="translate(63.623047 0)"/>
      <use xlink:href="#DejaVuSans-35" transform="translate(127.246094 0)"/>
      <use xlink:href="#DejaVuSans-38" transform="translate(190.869141 0)"/>
      <use xlink:href="#DejaVuSans-37" transform="translate(254.492188 0)"/>
     </g>
    </g>
   </g>
   <g id="text_27">
    <g clip-path="url(#pe7e74593b4)">
     <!-- 45592 -->
     <g transform="translate(994.668583 407.026832) scale(0.13 -0.13)">
      <use xlink:href="#DejaVuSans-34"/>
      <use xlink:href="#DejaVuSans-35" transform="translate(63.623047 0)"/>
      <use xlink:href="#DejaVuSans-35" transform="translate(127.246094 0)"/>
      <use xlink:href="#DejaVuSans-39" transform="translate(190.869141 0)"/>
      <use xlink:href="#DejaVuSans-32" transform="translate(254.492188 0)"/>
     </g>
    </g>
   </g>
   <g id="text_28">
    <g clip-path="url(#pe7e74593b4)">
     <!-- 63682 -->
     <g transform="translate(380.347991 759.360473) scale(0.13 -0.13)">
      <use xlink:href="#DejaVuSans-36"/>
      <use xlink:href="#DejaVuSans-33" transform="translate(63.623047 0)"/>
      <use xlink:href="#DejaVuSans-36" transform="translate(127.246094 0)"/>
      <use xlink:href="#DejaVuSans-38" transform="translate(190.869141 0)"/>
      <use xlink:href="#DejaVuSans-32" transform="translate(254.492188 0)"/>
     </g>
    </g>
   </g>
   <g id="text_29">
    <g clip-path="url(#pe7e74593b4)">
     <!-- 44713 -->
     <g transform="translate(814.050489 763.383796) scale(0.13 -0.13)">
      <use xlink:href="#DejaVuSans-34"/>
      <use xlink:href="#DejaVuSans-34" transform="translate(63.623047 0)"/>
      <use xlink:href="#DejaVuSans-37" transform="translate(127.246094 0)"/>
      <use xlink:href="#DejaVuSans-31" transform="translate(190.869141 0)"/>
      <use xlink:href="#DejaVuSans-33" transform="translate(254.492188 0)"/>
     </g>
    </g>
   </g>
   <g id="text_30">
    <g clip-path="url(#pe7e74593b4)">
     <!-- 67526 -->
     <g transform="translate(568.864164 731.994941) scale(0.13 -0.13)">
      <use xlink:href="#DejaVuSans-36"/>
      <use xlink:href="#DejaVuSans-37" transform="translate(63.623047 0)"/>
      <use xlink:href="#DejaVuSans-35" transform="translate(127.246094 0)"/>
      <use xlink:href="#DejaVuSans-32" transform="translate(190.869141 0)"/>
      <use xlink:href="#DejaVuSans-36" transform="translate(254.492188 0)"/>
     </g>
    </g>
   </g>
   <g id="text_31">
    <g clip-path="url(#pe7e74593b4)">
     <!-- 31500 -->
     <g transform="translate(402.255069 373.499141) scale(0.13 -0.13)">
      <use xlink:href="#DejaVuSans-33"/>
      <use xlink:href="#DejaVuSans-31" transform="translate(63.623047 0)"/>
      <use xlink:href="#DejaVuSans-35" transform="translate(127.246094 0)"/>
      <use xlink:href="#DejaVuSans-30" transform="translate(190.869141 0)"/>
      <use xlink:href="#DejaVuSans-30" transform="translate(254.492188 0)"/>
     </g>
    </g>
   </g>
   <g id="text_32">
    <g clip-path="url(#pe7e74593b4)">
     <!-- 63177 -->
     <g transform="translate(612.101818 317.504043) scale(0.13 -0.13)">
      <use xlink:href="#DejaVuSans-36"/>
      <use xlink:href="#DejaVuSans-33" transform="translate(63.623047 0)"/>
      <use xlink:href="#DejaVuSans-31" transform="translate(127.246094 0)"/>
      <use xlink:href="#DejaVuSans-37" transform="translate(190.869141 0)"/>
      <use xlink:href="#DejaVuSans-37" transform="translate(254.492188 0)"/>
     </g>
    </g>
   </g>
   <g id="text_33">
    <g clip-path="url(#pe7e74593b4)">
     <!-- 05372 -->
     <g transform="translate(742.564234 186.86166) scale(0.13 -0.13)">
      <use xlink:href="#DejaVuSans-30"/>
      <use xlink:href="#DejaVuSans-35" transform="translate(63.623047 0)"/>
      <use xlink:href="#DejaVuSans-33" transform="translate(127.246094 0)"/>
      <use xlink:href="#DejaVuSans-37" transform="translate(190.869141 0)"/>
      <use xlink:href="#DejaVuSans-32" transform="translate(254.492188 0)"/>
     </g>
    </g>
   </g>
   <g id="text_34">
    <g clip-path="url(#pe7e74593b4)">
     <!-- 37818 -->
     <g transform="translate(593.538452 115.33592) scale(0.13 -0.13)">
      <use xlink:href="#DejaVuSans-33"/>
      <use xlink:href="#DejaVuSans-37" transform="translate(63.623047 0)"/>
      <use xlink:href="#DejaVuSans-38" transform="translate(127.246094 0)"/>
      <use xlink:href="#DejaVuSans-31" transform="translate(190.869141 0)"/>
      <use xlink:href="#DejaVuSans-38" transform="translate(254.492188 0)"/>
     </g>
    </g>
   </g>
   <g id="text_35">
    <!-- 17 edges with bootstrap frequency &lt; 0.50 hidden -->
    <g style="fill: #666666" transform="translate(18.504 839.294375) scale(0.08 -0.08)">
     <defs>
      <path id="DejaVuSans-20" transform="scale(0.015625)"/>
      <path id="DejaVuSans-65" d="M 3597 1894 
L 3597 1613 
L 953 1613 
Q 991 1019 1311 708 
Q 1631 397 2203 397 
Q 2534 397 2845 478 
Q 3156 559 3463 722 
L 3463 178 
Q 3153 47 2828 -22 
Q 2503 -91 2169 -91 
Q 1331 -91 842 396 
Q 353 884 353 1716 
Q 353 2575 817 3079 
Q 1281 3584 2069 3584 
Q 2775 3584 3186 3129 
Q 3597 2675 3597 1894 
z
M 3022 2063 
Q 3016 2534 2758 2815 
Q 2500 3097 2075 3097 
Q 1594 3097 1305 2825 
Q 1016 2553 972 2059 
L 3022 2063 
z
" transform="scale(0.015625)"/>
      <path id="DejaVuSans-64" d="M 2906 2969 
L 2906 4863 
L 3481 4863 
L 3481 0 
L 2906 0 
L 2906 525 
Q 2725 213 2448 61 
Q 2172 -91 1784 -91 
Q 1150 -91 751 415 
Q 353 922 353 1747 
Q 353 2572 751 3078 
Q 1150 3584 1784 3584 
Q 2172 3584 2448 3432 
Q 2725 3281 2906 2969 
z
M 947 1747 
Q 947 1113 1208 752 
Q 1469 391 1925 391 
Q 2381 391 2643 752 
Q 2906 1113 2906 1747 
Q 2906 2381 2643 2742 
Q 2381 3103 1925 3103 
Q 1469 3103 1208 2742 
Q 947 2381 947 1747 
z
" transform="scale(0.015625)"/>
      <path id="DejaVuSans-67" d="M 2906 1791 
Q 2906 2416 2648 2759 
Q 2391 3103 1925 3103 
Q 1463 3103 1205 2759 
Q 947 2416 947 1791 
Q 947 1169 1205 825 
Q 1463 481 1925 481 
Q 2391 481 2648 825 
Q 2906 1169 2906 1791 
z
M 3481 434 
Q 3481 -459 3084 -895 
Q 2688 -1331 1869 -1331 
Q 1566 -1331 1297 -1286 
Q 1028 -1241 775 -1147 
L 775 -588 
Q 1028 -725 1275 -790 
Q 1522 -856 1778 -856 
Q 2344 -856 2625 -561 
Q 2906 -266 2906 331 
L 2906 616 
Q 2728 306 2450 153 
Q 2172 0 1784 0 
Q 1141 0 747 490 
Q 353 981 353 1791 
Q 353 2603 747 3093 
Q 1141 3584 1784 3584 
Q 2172 3584 2450 3431 
Q 2728 3278 2906 2969 
L 2906 3500 
L 3481 3500 
L 3481 434 
z
" transform="scale(0.015625)"/>
      <path id="DejaVuSans-73" d="M 2834 3397 
L 2834 2853 
Q 2591 2978 2328 3040 
Q 2066 3103 1784 3103 
Q 1356 3103 1142 2972 
Q 928 2841 928 2578 
Q 928 2378 1081 2264 
Q 1234 2150 1697 2047 
L 1894 2003 
Q 2506 1872 2764 1633 
Q 3022 1394 3022 966 
Q 3022 478 2636 193 
Q 2250 -91 1575 -91 
Q 1294 -91 989 -36 
Q 684 19 347 128 
L 347 722 
Q 666 556 975 473 
Q 1284 391 1588 391 
Q 1994 391 2212 530 
Q 2431 669 2431 922 
Q 2431 1156 2273 1281 
Q 2116 1406 1581 1522 
L 1381 1569 
Q 847 1681 609 1914 
Q 372 2147 372 2553 
Q 372 3047 722 3315 
Q 1072 3584 1716 3584 
Q 2034 3584 2315 3537 
Q 2597 3491 2834 3397 
z
" transform="scale(0.015625)"/>
      <path id="DejaVuSans-77" d="M 269 3500 
L 844 3500 
L 1563 769 
L 2278 3500 
L 2956 3500 
L 3675 769 
L 4391 3500 
L 4966 3500 
L 4050 0 
L 3372 0 
L 2619 2869 
L 1863 0 
L 1184 0 
L 269 3500 
z
" transform="scale(0.015625)"/>
      <path id="DejaVuSans-69" d="M 603 3500 
L 1178 3500 
L 1178 0 
L 603 0 
L 603 3500 
z
M 603 4863 
L 1178 4863 
L 1178 4134 
L 603 4134 
L 603 4863 
z
" transform="scale(0.015625)"/>
      <path id="DejaVuSans-74" d="M 1172 4494 
L 1172 3500 
L 2356 3500 
L 2356 3053 
L 1172 3053 
L 1172 1153 
Q 1172 725 1289 603 
Q 1406 481 1766 481 
L 2356 481 
L 2356 0 
L 1766 0 
Q 1100 0 847 248 
Q 594 497 594 1153 
L 594 3053 
L 172 3053 
L 172 3500 
L 594 3500 
L 594 4494 
L 1172 4494 
z
" transform="scale(0.015625)"/>
      <path id="DejaVuSans-68" d="M 3513 2113 
L 3513 0 
L 2938 0 
L 2938 2094 
Q 2938 2591 2744 2837 
Q 2550 3084 2163 3084 
Q 1697 3084 1428 2787 
Q 1159 2491 1159 1978 
L 1159 0 
L 581 0 
L 581 4863 
L 1159 4863 
L 1159 2956 
Q 1366 3272 1645 3428 
Q 1925 3584 2291 3584 
Q 2894 3584 3203 3211 
Q 3513 2838 3513 2113 
z
" transform="scale(0.015625)"/>
      <path id="DejaVuSans-62" d="M 3116 1747 
Q 3116 2381 2855 2742 
Q 2594 3103 2138 3103 
Q 1681 3103 1420 2742 
Q 1159 2381 1159 1747 
Q 1159 1113 1420 752 
Q 1681 391 2138 391 
Q 2594 391 2855 752 
Q 3116 1113 3116 1747 
z
M 1159 2969 
Q 1341 3281 1617 3432 
Q 1894 3584 2278 3584 
Q 2916 3584 3314 3078 
Q 3713 2572 3713 1747 
Q 3713 922 3314 415 
Q 2916 -91 2278 -91 
Q 1894 -91 1617 61 
Q 1341 213 1159 525 
L 1159 0 
L 581 0 
L 581 4863 
L 1159 4863 
L 1159 2969 
z
" transform="scale(0.015625)"/>
      <path id="DejaVuSans-6f" d="M 1959 3097 
Q 1497 3097 1228 2736 
Q 959 2375 959 1747 
Q 959 1119 1226 758 
Q 1494 397 1959 397 
Q 2419 397 2687 759 
Q 2956 1122 2956 1747 
Q 2956 2369 2687 2733 
Q 2419 3097 1959 3097 
z
M 1959 3584 
Q 2709 3584 3137 3096 
Q 3566 2609 3566 1747 
Q 3566 888 3137 398 
Q 2709 -91 1959 -91 
Q 1206 -91 779 398 
Q 353 888 353 1747 
Q 353 2609 779 3096 
Q 1206 3584 1959 3584 
z
" transform="scale(0.015625)"/>
      <path id="DejaVuSans-72" d="M 2631 2963 
Q 2534 3019 2420 3045 
Q 2306 3072 2169 3072 
Q 1681 3072 1420 2755 
Q 1159 2438 1159 1844 
L 1159 0 
L 581 0 
L 581 3500 
L 1159 3500 
L 1159 2956 
Q 1341 3275 1631 3429 
Q 1922 3584 2338 3584 
Q 2397 3584 2469 3576 
Q 2541 3569 2628 3553 
L 2631 2963 
z
" transform="scale(0.015625)"/>
      <path id="DejaVuSans-61" d="M 2194 1759 
Q 1497 1759 1228 1600 
Q 959 1441 959 1056 
Q 959 750 1161 570 
Q 1363 391 1709 391 
Q 2188 391 2477 730 
Q 2766 1069 2766 1631 
L 2766 1759 
L 2194 1759 
z
M 3341 1997 
L 3341 0 
L 2766 0 
L 2766 531 
Q 2569 213 2275 61 
Q 1981 -91 1556 -91 
Q 1019 -91 701 211 
Q 384 513 384 1019 
Q 384 1609 779 1909 
Q 1175 2209 1959 2209 
L 2766 2209 
L 2766 2266 
Q 2766 2663 2505 2880 
Q 2244 3097 1772 3097 
Q 1472 3097 1187 3025 
Q 903 2953 641 2809 
L 641 3341 
Q 956 3463 1253 3523 
Q 1550 3584 1831 3584 
Q 2591 3584 2966 3190 
Q 3341 2797 3341 1997 
z
" transform="scale(0.015625)"/>
      <path id="DejaVuSans-70" d="M 1159 525 
L 1159 -1331 
L 581 -1331 
L 581 3500 
L 1159 3500 
L 1159 2969 
Q 1341 3281 1617 3432 
Q 1894 3584 2278 3584 
Q 2916 3584 3314 3078 
Q 3713 2572 3713 1747 
Q 3713 922 3314 415 
Q 2916 -91 2278 -91 
Q 1894 -91 1617 61 
Q 1341 213 1159 525 
z
M 3116 1747 
Q 3116 2381 2855 2742 
Q 2594 3103 2138 3103 
Q 1681 3103 1420 2742 
Q 1159 2381 1159 1747 
Q 1159 1113 1420 752 
Q 1681 391 2138 391 
Q 2594 391 2855 752 
Q 3116 1113 3116 1747 
z
" transform="scale(0.015625)"/>
      <path id="DejaVuSans-66" d="M 2375 4863 
L 2375 4384 
L 1825 4384 
Q 1516 4384 1395 4259 
Q 1275 4134 1275 3809 
L 1275 3500 
L 2222 3500 
L 2222 3053 
L 1275 3053 
L 1275 0 
L 697 0 
L 697 3053 
L 147 3053 
L 147 3500 
L 697 3500 
L 697 3744 
Q 697 4328 969 4595 
Q 1241 4863 1831 4863 
L 2375 4863 
z
" transform="scale(0.015625)"/>
      <path id="DejaVuSans-71" d="M 947 1747 
Q 947 1113 1208 752 
Q 1469 391 1925 391 
Q 2381 391 2643 752 
Q 2906 1113 2906 1747 
Q 2906 2381 2643 2742 
Q 2381 3103 1925 3103 
Q 1469 3103 1208 2742 
Q 947 2381 947 1747 
z
M 2906 525 
Q 2725 213 2448 61 
Q 2172 -91 1784 -91 
Q 1150 -91 751 415 
Q 353 922 353 1747 
Q 353 2572 751 3078 
Q 1150 3584 1784 3584 
Q 2172 3584 2448 3432 
Q 2725 3281 2906 2969 
L 2906 3500 
L 3481 3500 
L 3481 -1331 
L 2906 -1331 
L 2906 525 
z
" transform="scale(0.015625)"/>
      <path id="DejaVuSans-75" d="M 544 1381 
L 544 3500 
L 1119 3500 
L 1119 1403 
Q 1119 906 1312 657 
Q 1506 409 1894 409 
Q 2359 409 2629 706 
Q 2900 1003 2900 1516 
L 2900 3500 
L 3475 3500 
L 3475 0 
L 2900 0 
L 2900 538 
Q 2691 219 2414 64 
Q 2138 -91 1772 -91 
Q 1169 -91 856 284 
Q 544 659 544 1381 
z
M 1991 3584 
L 1991 3584 
z
" transform="scale(0.015625)"/>
      <path id="DejaVuSans-6e" d="M 3513 2113 
L 3513 0 
L 2938 0 
L 2938 2094 
Q 2938 2591 2744 2837 
Q 2550 3084 2163 3084 
Q 1697 3084 1428 2787 
Q 1159 2491 1159 1978 
L 1159 0 
L 581 0 
L 581 3500 
L 1159 3500 
L 1159 2956 
Q 1366 3272 1645 3428 
Q 1925 3584 2291 3584 
Q 2894 3584 3203 3211 
Q 3513 2838 3513 2113 
z
" transform="scale(0.015625)"/>
      <path id="DejaVuSans-63" d="M 3122 3366 
L 3122 2828 
Q 2878 2963 2633 3030 
Q 2388 3097 2138 3097 
Q 1578 3097 1268 2742 
Q 959 2388 959 1747 
Q 959 1106 1268 751 
Q 1578 397 2138 397 
Q 2388 397 2633 464 
Q 2878 531 3122 666 
L 3122 134 
Q 2881 22 2623 -34 
Q 2366 -91 2075 -91 
Q 1284 -91 818 406 
Q 353 903 353 1747 
Q 353 2603 823 3093 
Q 1294 3584 2113 3584 
Q 2378 3584 2631 3529 
Q 2884 3475 3122 3366 
z
" transform="scale(0.015625)"/>
      <path id="DejaVuSans-79" d="M 2059 -325 
Q 1816 -950 1584 -1140 
Q 1353 -1331 966 -1331 
L 506 -1331 
L 506 -850 
L 844 -850 
Q 1081 -850 1212 -737 
Q 1344 -625 1503 -206 
L 1606 56 
L 191 3500 
L 800 3500 
L 1894 763 
L 2988 3500 
L 3597 3500 
L 2059 -325 
z
" transform="scale(0.015625)"/>
      <path id="DejaVuSans-3c" d="M 4684 3150 
L 1459 2003 
L 4684 863 
L 4684 294 
L 678 1747 
L 678 2266 
L 4684 3719 
L 4684 3150 
z
" transform="scale(0.015625)"/>
     </defs>
     <use xlink:href="#DejaVuSans-31"/>
     <use xlink:href="#DejaVuSans-37" transform="translate(63.623047 0)"/>
     <use xlink:href="#DejaVuSans-20" transform="translate(127.246094 0)"/>
     <use xlink:href="#DejaVuSans-65" transform="translate(159.033203 0)"/>
     <use xlink:href="#DejaVuSans-64" transform="translate(220.556641 0)"/>
     <use xlink:href="#DejaVuSans-67" transform="translate(284.033203 0)"/>
     <use xlink:href="#DejaVuSans-65" transform="translate(347.509766 0)"/>
     <use xlink:href="#DejaVuSans-73" transform="translate(409.033203 0)"/>
     <use xlink:href="#DejaVuSans-20" transform="translate(461.132812 0)"/>
     <use xlink:href="#DejaVuSans-77" transform="translate(492.919922 0)"/>
     <use xlink:href="#DejaVuSans-69" transform="translate(574.707031 0)"/>
     <use xlink:href="#DejaVuSans-74" transform="translate(602.490234 0)"/>
     <use xlink:href="#DejaVuSans-68" transform="translate(641.699219 0)"/>
     <use xlink:href="#DejaVuSans-20" transform="translate(705.078125 0)"/>
     <use xlink:href="#DejaVuSans-62" transform="translate(736.865234 0)"/>
     <use xlink:href="#DejaVuSans-6f" transform="translate(800.341797 0)"/>
     <use xlink:href="#DejaVuSans-6f" transform="translate(861.523438 0)"/>
     <use xlink:href="#DejaVuSans-74" transform="translate(922.705078 0)"/>
     <use xlink:href="#DejaVuSans-73" transform="translate(961.914062 0)"/>
     <use xlink:href="#DejaVuSans-74" transform="translate(1014.013672 0)"/>
     <use xlink:href="#DejaVuSans-72" transform="translate(1053.222656 0)"/>
     <use xlink:href="#DejaVuSans-61" transform="translate(1094.335938 0)"/>
     <use xlink:href="#DejaVuSans-70" transform="translate(1155.615234 0)"/>
     <use xlink:href="#DejaVuSans-20" transform="translate(1219.091797 0)"/>
     <use xlink:href="#DejaVuSans-66" transform="translate(1250.878906 0)"/>
     <use xlink:href="#DejaVuSans-72" transform="translate(1286.083984 0)"/>
     <use xlink:href="#DejaVuSans-65" transform="translate(1324.947266 0)"/>
     <use xlink:href="#DejaVuSans-71" transform="translate(1386.470703 0)"/>
     <use xlink:href="#DejaVuSans-75" transform="translate(1449.947266 0)"/>
     <use xlink:href="#DejaVuSans-65" transform="translate(1513.326172 0)"/>
     <use xlink:href="#DejaVuSans-6e" transform="translate(1574.849609 0)"/>
     <use xlink:href="#DejaVuSans-63" transform="translate(1638.228516 0)"/>
     <use xlink:href="#DejaVuSans-79" transform="translate(1693.208984 0)"/>
     <use xlink:href="#DejaVuSans-20" transform="translate(1752.388672 0)"/>
     <use xlink:href="#DejaVuSans-3c" transform="translate(1784.175781 0)"/>
     <use xlink:href="#DejaVuSans-20" transform="translate(1867.964844 0)"/>
     <use xlink:href="#DejaVuSans-30" transform="translate(1899.751953 0)"/>
     <use xlink:href="#DejaVuSans-2e" transform="translate(1963.375 0)"/>
     <use xlink:href="#DejaVuSans-35" transform="translate(1995.162109 0)"/>
     <use xlink:href="#DejaVuSans-30" transform="translate(2058.785156 0)"/>
     <use xlink:href="#DejaVuSans-20" transform="translate(2122.408203 0)"/>
     <use xlink:href="#DejaVuSans-68" transform="translate(2154.195312 0)"/>
     <use xlink:href="#DejaVuSans-69" transform="translate(2217.574219 0)"/>
     <use xlink:href="#DejaVuSans-64" transform="translate(2245.357422 0)"/>
     <use xlink:href="#DejaVuSans-64" transform="translate(2308.833984 0)"/>
     <use xlink:href="#DejaVuSans-65" transform="translate(2372.310547 0)"/>
     <use xlink:href="#DejaVuSans-6e" transform="translate(2433.833984 0)"/>
    </g>
   </g>
   <g id="text_36">
    <!-- Causal Graph -->
    <g style="fill: #262626" transform="translate(527.412188 16.318125) scale(0.12 -0.12)">
     <defs>
      <path id="DejaVuSans-Bold-43" d="M 4288 256 
Q 3956 84 3597 -3 
Q 3238 -91 2847 -91 
Q 1681 -91 1000 561 
Q 319 1213 319 2328 
Q 319 3447 1000 4098 
Q 1681 4750 2847 4750 
Q 3238 4750 3597 4662 
Q 3956 4575 4288 4403 
L 4288 3438 
Q 3953 3666 3628 3772 
Q 3303 3878 2944 3878 
Q 2300 3878 1931 3465 
Q 1563 3053 1563 2328 
Q 1563 1606 1931 1193 
Q 2300 781 2944 781 
Q 3303 781 3628 887 
Q 3953 994 4288 1222 
L 4288 256 
z
" transform="scale(0.015625)"/>
      <path id="DejaVuSans-Bold-61" d="M 2106 1575 
Q 1756 1575 1579 1456 
Q 1403 1338 1403 1106 
Q 1403 894 1545 773 
Q 1688 653 1941 653 
Q 2256 653 2472 879 
Q 2688 1106 2688 1447 
L 2688 1575 
L 2106 1575 
z
M 3816 1997 
L 3816 0 
L 2688 0 
L 2688 519 
Q 2463 200 2181 54 
Q 1900 -91 1497 -91 
Q 953 -91 614 226 
Q 275 544 275 1050 
Q 275 1666 698 1953 
Q 1122 2241 2028 2241 
L 2688 2241 
L 2688 2328 
Q 2688 2594 2478 2717 
Q 2269 2841 1825 2841 
Q 1466 2841 1156 2769 
Q 847 2697 581 2553 
L 581 3406 
Q 941 3494 1303 3539 
Q 1666 3584 2028 3584 
Q 2975 3584 3395 3211 
Q 3816 2838 3816 1997 
z
" transform="scale(0.015625)"/>
      <path id="DejaVuSans-Bold-75" d="M 500 1363 
L 500 3500 
L 1625 3500 
L 1625 3150 
Q 1625 2866 1622 2436 
Q 1619 2006 1619 1863 
Q 1619 1441 1641 1255 
Q 1663 1069 1716 984 
Q 1784 875 1895 815 
Q 2006 756 2150 756 
Q 2500 756 2700 1025 
Q 2900 1294 2900 1772 
L 2900 3500 
L 4019 3500 
L 4019 0 
L 2900 0 
L 2900 506 
Q 2647 200 2364 54 
Q 2081 -91 1741 -91 
Q 1134 -91 817 281 
Q 500 653 500 1363 
z
" transform="scale(0.015625)"/>
      <path id="DejaVuSans-Bold-73" d="M 3272 3391 
L 3272 2541 
Q 2913 2691 2578 2766 
Q 2244 2841 1947 2841 
Q 1628 2841 1473 2761 
Q 1319 2681 1319 2516 
Q 1319 2381 1436 2309 
Q 1553 2238 1856 2203 
L 2053 2175 
Q 2913 2066 3209 1816 
Q 3506 1566 3506 1031 
Q 3506 472 3093 190 
Q 2681 -91 1863 -91 
Q 1516 -91 1145 -36 
Q 775 19 384 128 
L 384 978 
Q 719 816 1070 734 
Q 1422 653 1784 653 
Q 2113 653 2278 743 
Q 2444 834 2444 1013 
Q 2444 1163 2330 1236 
Q 2216 1309 1875 1350 
L 1678 1375 
Q 931 1469 631 1722 
Q 331 1975 331 2491 
Q 331 3047 712 3315 
Q 1094 3584 1881 3584 
Q 2191 3584 2531 3537 
Q 2872 3491 3272 3391 
z
" transform="scale(0.015625)"/>
      <path id="DejaVuSans-Bold-6c" d="M 538 4863 
L 1656 4863 
L 1656 0 
L 538 0 
L 538 4863 
z
" transform="scale(0.015625)"/>
      <path id="DejaVuSans-Bold-20" transform="scale(0.015625)"/>
      <path id="DejaVuSans-Bold-47" d="M 4781 347 
Q 4331 128 3847 18 
Q 3363 -91 2847 -91 
Q 1681 -91 1000 561 
Q 319 1213 319 2328 
Q 319 3456 1012 4103 
Q 1706 4750 2913 4750 
Q 3378 4750 3804 4662 
Q 4231 4575 4609 4403 
L 4609 3438 
Q 4219 3659 3833 3768 
Q 3447 3878 3059 3878 
Q 2341 3878 1952 3476 
Q 1563 3075 1563 2328 
Q 1563 1588 1938 1184 
Q 2313 781 3003 781 
Q 3191 781 3352 804 
Q 3513 828 3641 878 
L 3641 1784 
L 2906 1784 
L 2906 2591 
L 4781 2591 
L 4781 347 
z
" transform="scale(0.015625)"/>
      <path id="DejaVuSans-Bold-72" d="M 3138 2547 
Q 2991 2616 2845 2648 
Q 2700 2681 2553 2681 
Q 2122 2681 1889 2404 
Q 1656 2128 1656 1613 
L 1656 0 
L 538 0 
L 538 3500 
L 1656 3500 
L 1656 2925 
Q 1872 3269 2151 3426 
Q 2431 3584 2822 3584 
Q 2878 3584 2943 3579 
Q 3009 3575 3134 3559 
L 3138 2547 
z
" transform="scale(0.015625)"/>
      <path id="DejaVuSans-Bold-70" d="M 1656 506 
L 1656 -1331 
L 538 -1331 
L 538 3500 
L 1656 3500 
L 1656 2988 
Q 1888 3294 2169 3439 
Q 2450 3584 2816 3584 
Q 3463 3584 3878 3070 
Q 4294 2556 4294 1747 
Q 4294 938 3878 423 
Q 3463 -91 2816 -91 
Q 2450 -91 2169 54 
Q 1888 200 1656 506 
z
M 2400 2772 
Q 2041 2772 1848 2508 
Q 1656 2244 1656 1747 
Q 1656 1250 1848 986 
Q 2041 722 2400 722 
Q 2759 722 2948 984 
Q 3138 1247 3138 1747 
Q 3138 2247 2948 2509 
Q 2759 2772 2400 2772 
z
" transform="scale(0.015625)"/>
      <path id="DejaVuSans-Bold-68" d="M 4056 2131 
L 4056 0 
L 2931 0 
L 2931 347 
L 2931 1625 
Q 2931 2084 2911 2256 
Q 2891 2428 2841 2509 
Q 2775 2619 2662 2680 
Q 2550 2741 2406 2741 
Q 2056 2741 1856 2470 
Q 1656 2200 1656 1722 
L 1656 0 
L 538 0 
L 538 4863 
L 1656 4863 
L 1656 2988 
Q 1909 3294 2193 3439 
Q 2478 3584 2822 3584 
Q 3428 3584 3742 3212 
Q 4056 2841 4056 2131 
z
" transform="scale(0.015625)"/>
     </defs>
     <use xlink:href="#DejaVuSans-Bold-43"/>
     <use xlink:href="#DejaVuSans-Bold-61" transform="translate(73.388672 0)"/>
     <use xlink:href="#DejaVuSans-Bold-75" transform="translate(140.869141 0)"/>
     <use xlink:href="#DejaVuSans-Bold-73" transform="translate(212.060547 0)"/>
     <use xlink:href="#DejaVuSans-Bold-61" transform="translate(271.582031 0)"/>
     <use xlink:href="#DejaVuSans-Bold-6c" transform="translate(339.0625 0)"/>
     <use xlink:href="#DejaVuSans-Bold-20" transform="translate(373.339844 0)"/>
     <use xlink:href="#DejaVuSans-Bold-47" transform="translate(408.154297 0)"/>
     <use xlink:href="#DejaVuSans-Bold-72" transform="translate(490.234375 0)"/>
     <use xlink:href="#DejaVuSans-Bold-61" transform="translate(539.550781 0)"/>
     <use xlink:href="#DejaVuSans-Bold-70" transform="translate(607.03125 0)"/>
     <use xlink:href="#DejaVuSans-Bold-68" transform="translate(678.613281 0)"/>
    </g>
   </g>
   <g id="legend_1">
    <g id="patch_74">
     <path d="M 976.463438 99.169687 
L 1131.3 99.169687 
Q 1133.1 99.169687 1133.1 97.369687 
L 1133.1 28.618125 
Q 1133.1 26.818125 1131.3 26.818125 
L 976.463438 26.818125 
Q 974.663438 26.818125 974.663438 28.618125 
L 974.663438 97.369687 
Q 974.663438 99.169687 976.463438 99.169687 
z
" style="fill: #ffffff; opacity: 0.92; stroke: #cccccc; stroke-linejoin: miter"/>
    </g>
    <g id="text_37">
     <!-- edge colour = verdict -->
     <g style="fill: #262626" transform="translate(1005.086953 39.056719) scale(0.09 -0.09)">
      <defs>
       <path id="DejaVuSans-6c" d="M 603 4863 
L 1178 4863 
L 1178 0 
L 603 0 
L 603 4863 
z
" transform="scale(0.015625)"/>
       <path id="DejaVuSans-3d" d="M 678 2906 
L 4684 2906 
L 4684 2381 
L 678 2381 
L 678 2906 
z
M 678 1631 
L 4684 1631 
L 4684 1100 
L 678 1100 
L 678 1631 
z
" transform="scale(0.015625)"/>
       <path id="DejaVuSans-76" d="M 191 3500 
L 800 3500 
L 1894 563 
L 2988 3500 
L 3597 3500 
L 2284 0 
L 1503 0 
L 191 3500 
z
" transform="scale(0.015625)"/>
      </defs>
      <use xlink:href="#DejaVuSans-65"/>
      <use xlink:href="#DejaVuSans-64" transform="translate(61.523438 0)"/>
      <use xlink:href="#DejaVuSans-67" transform="translate(125 0)"/>
      <use xlink:href="#DejaVuSans-65" transform="translate(188.476562 0)"/>
      <use xlink:href="#DejaVuSans-20" transform="translate(250 0)"/>
      <use xlink:href="#DejaVuSans-63" transform="translate(281.787109 0)"/>
      <use xlink:href="#DejaVuSans-6f" transform="translate(336.767578 0)"/>
      <use xlink:href="#DejaVuSans-6c" transform="translate(397.949219 0)"/>
      <use xlink:href="#DejaVuSans-6f" transform="translate(425.732422 0)"/>
      <use xlink:href="#DejaVuSans-75" transform="translate(486.914062 0)"/>
      <use xlink:href="#DejaVuSans-72" transform="translate(550.292969 0)"/>
      <use xlink:href="#DejaVuSans-20" transform="translate(591.40625 0)"/>
      <use xlink:href="#DejaVuSans-3d" transform="translate(623.193359 0)"/>
      <use xlink:href="#DejaVuSans-20" transform="translate(706.982422 0)"/>
      <use xlink:href="#DejaVuSans-76" transform="translate(738.769531 0)"/>
      <use xlink:href="#DejaVuSans-65" transform="translate(797.949219 0)"/>
      <use xlink:href="#DejaVuSans-72" transform="translate(859.472656 0)"/>
      <use xlink:href="#DejaVuSans-64" transform="translate(898.835938 0)"/>
      <use xlink:href="#DejaVuSans-69" transform="translate(962.3125 0)"/>
      <use xlink:href="#DejaVuSans-63" transform="translate(990.095703 0)"/>
      <use xlink:href="#DejaVuSans-74" transform="translate(1045.076172 0)"/>
     </g>
    </g>
    <g id="line2d_1">
     <path d="M 980.063438 49.117031 
L 987.263438 49.117031 
L 994.463438 49.117031 
" style="fill: none; stroke: #009e73; stroke-width: 2.5; stroke-linecap: round"/>
    </g>
    <g id="text_38">
     <!-- confirmed (MW-sig) -->
     <g style="fill: #262626" transform="translate(1001.663438 52.267031) scale(0.09 -0.09)">
      <defs>
       <path id="DejaVuSans-6d" d="M 3328 2828 
Q 3544 3216 3844 3400 
Q 4144 3584 4550 3584 
Q 5097 3584 5394 3201 
Q 5691 2819 5691 2113 
L 5691 0 
L 5113 0 
L 5113 2094 
Q 5113 2597 4934 2840 
Q 4756 3084 4391 3084 
Q 3944 3084 3684 2787 
Q 3425 2491 3425 1978 
L 3425 0 
L 2847 0 
L 2847 2094 
Q 2847 2600 2669 2842 
Q 2491 3084 2119 3084 
Q 1678 3084 1418 2786 
Q 1159 2488 1159 1978 
L 1159 0 
L 581 0 
L 581 3500 
L 1159 3500 
L 1159 2956 
Q 1356 3278 1631 3431 
Q 1906 3584 2284 3584 
Q 2666 3584 2933 3390 
Q 3200 3197 3328 2828 
z
" transform="scale(0.015625)"/>
       <path id="DejaVuSans-28" d="M 1984 4856 
Q 1566 4138 1362 3434 
Q 1159 2731 1159 2009 
Q 1159 1288 1364 580 
Q 1569 -128 1984 -844 
L 1484 -844 
Q 1016 -109 783 600 
Q 550 1309 550 2009 
Q 550 2706 781 3412 
Q 1013 4119 1484 4856 
L 1984 4856 
z
" transform="scale(0.015625)"/>
       <path id="DejaVuSans-4d" d="M 628 4666 
L 1569 4666 
L 2759 1491 
L 3956 4666 
L 4897 4666 
L 4897 0 
L 4281 0 
L 4281 4097 
L 3078 897 
L 2444 897 
L 1241 4097 
L 1241 0 
L 628 0 
L 628 4666 
z
" transform="scale(0.015625)"/>
       <path id="DejaVuSans-57" d="M 213 4666 
L 850 4666 
L 1831 722 
L 2809 4666 
L 3519 4666 
L 4500 722 
L 5478 4666 
L 6119 4666 
L 4947 0 
L 4153 0 
L 3169 4050 
L 2175 0 
L 1381 0 
L 213 4666 
z
" transform="scale(0.015625)"/>
       <path id="DejaVuSans-29" d="M 513 4856 
L 1013 4856 
Q 1481 4119 1714 3412 
Q 1947 2706 1947 2009 
Q 1947 1309 1714 600 
Q 1481 -109 1013 -844 
L 513 -844 
Q 928 -128 1133 580 
Q 1338 1288 1338 2009 
Q 1338 2731 1133 3434 
Q 928 4138 513 4856 
z
" transform="scale(0.015625)"/>
      </defs>
      <use xlink:href="#DejaVuSans-63"/>
      <use xlink:href="#DejaVuSans-6f" transform="translate(54.980469 0)"/>
      <use xlink:href="#DejaVuSans-6e" transform="translate(116.162109 0)"/>
      <use xlink:href="#DejaVuSans-66" transform="translate(179.541016 0)"/>
      <use xlink:href="#DejaVuSans-69" transform="translate(214.746094 0)"/>
      <use xlink:href="#DejaVuSans-72" transform="translate(242.529297 0)"/>
      <use xlink:href="#DejaVuSans-6d" transform="translate(281.892578 0)"/>
      <use xlink:href="#DejaVuSans-65" transform="translate(379.304688 0)"/>
      <use xlink:href="#DejaVuSans-64" transform="translate(440.828125 0)"/>
      <use xlink:href="#DejaVuSans-20" transform="translate(504.304688 0)"/>
      <use xlink:href="#DejaVuSans-28" transform="translate(536.091797 0)"/>
      <use xlink:href="#DejaVuSans-4d" transform="translate(575.105469 0)"/>
      <use xlink:href="#DejaVuSans-57" transform="translate(661.384766 0)"/>
      <use xlink:href="#DejaVuSans-2d" transform="translate(756.261719 0)"/>
      <use xlink:href="#DejaVuSans-73" transform="translate(792.345703 0)"/>
      <use xlink:href="#DejaVuSans-69" transform="translate(844.445312 0)"/>
      <use xlink:href="#DejaVuSans-67" transform="translate(872.228516 0)"/>
      <use xlink:href="#DejaVuSans-29" transform="translate(935.705078 0)"/>
     </g>
    </g>
    <g id="line2d_2">
     <path d="M 980.063438 62.327344 
L 987.263438 62.327344 
L 994.463438 62.327344 
" style="fill: none; stroke: #d55e00; stroke-width: 2.5; stroke-linecap: round"/>
    </g>
    <g id="text_39">
     <!-- refuted (not MW-sig) -->
     <g style="fill: #262626" transform="translate(1001.663438 65.477344) scale(0.09 -0.09)">
      <use xlink:href="#DejaVuSans-72"/>
      <use xlink:href="#DejaVuSans-65" transform="translate(38.863281 0)"/>
      <use xlink:href="#DejaVuSans-66" transform="translate(100.386719 0)"/>
      <use xlink:href="#DejaVuSans-75" transform="translate(135.591797 0)"/>
      <use xlink:href="#DejaVuSans-74" transform="translate(198.970703 0)"/>
      <use xlink:href="#DejaVuSans-65" transform="translate(238.179688 0)"/>
      <use xlink:href="#DejaVuSans-64" transform="translate(299.703125 0)"/>
      <use xlink:href="#DejaVuSans-20" transform="translate(363.179688 0)"/>
      <use xlink:href="#DejaVuSans-28" transform="translate(394.966797 0)"/>
      <use xlink:href="#DejaVuSans-6e" transform="translate(433.980469 0)"/>
      <use xlink:href="#DejaVuSans-6f" transform="translate(497.359375 0)"/>
      <use xlink:href="#DejaVuSans-74" transform="translate(558.541016 0)"/>
      <use xlink:href="#DejaVuSans-20" transform="translate(597.75 0)"/>
      <use xlink:href="#DejaVuSans-4d" transform="translate(629.537109 0)"/>
      <use xlink:href="#DejaVuSans-57" transform="translate(715.816406 0)"/>
      <use xlink:href="#DejaVuSans-2d" transform="translate(810.693359 0)"/>
      <use xlink:href="#DejaVuSans-73" transform="translate(846.777344 0)"/>
      <use xlink:href="#DejaVuSans-69" transform="translate(898.876953 0)"/>
      <use xlink:href="#DejaVuSans-67" transform="translate(926.660156 0)"/>
      <use xlink:href="#DejaVuSans-29" transform="translate(990.136719 0)"/>
     </g>
    </g>
    <g id="line2d_3">
     <path d="M 980.063438 75.537656 
L 987.263438 75.537656 
L 994.463438 75.537656 
" style="fill: none; stroke: #e69f00; stroke-width: 2.5; stroke-linecap: round"/>
    </g>
    <g id="text_40">
     <!-- cyclic (bidirectional MW-sig) -->
     <g style="fill: #262626" transform="translate(1001.663438 78.687656) scale(0.09 -0.09)">
      <use xlink:href="#DejaVuSans-63"/>
      <use xlink:href="#DejaVuSans-79" transform="translate(54.980469 0)"/>
      <use xlink:href="#DejaVuSans-63" transform="translate(114.160156 0)"/>
      <use xlink:href="#DejaVuSans-6c" transform="translate(169.140625 0)"/>
      <use xlink:href="#DejaVuSans-69" transform="translate(196.923828 0)"/>
      <use xlink:href="#DejaVuSans-63" transform="translate(224.707031 0)"/>
      <use xlink:href="#DejaVuSans-20" transform="translate(279.6875 0)"/>
      <use xlink:href="#DejaVuSans-28" transform="translate(311.474609 0)"/>
      <use xlink:href="#DejaVuSans-62" transform="translate(350.488281 0)"/>
      <use xlink:href="#DejaVuSans-69" transform="translate(413.964844 0)"/>
      <use xlink:href="#DejaVuSans-64" transform="translate(441.748047 0)"/>
      <use xlink:href="#DejaVuSans-69" transform="translate(505.224609 0)"/>
      <use xlink:href="#DejaVuSans-72" transform="translate(533.007812 0)"/>
      <use xlink:href="#DejaVuSans-65" transform="translate(571.871094 0)"/>
      <use xlink:href="#DejaVuSans-63" transform="translate(633.394531 0)"/>
      <use xlink:href="#DejaVuSans-74" transform="translate(688.375 0)"/>
      <use xlink:href="#DejaVuSans-69" transform="translate(727.583984 0)"/>
      <use xlink:href="#DejaVuSans-6f" transform="translate(755.367188 0)"/>
      <use xlink:href="#DejaVuSans-6e" transform="translate(816.548828 0)"/>
      <use xlink:href="#DejaVuSans-61" transform="translate(879.927734 0)"/>
      <use xlink:href="#DejaVuSans-6c" transform="translate(941.207031 0)"/>
      <use xlink:href="#DejaVuSans-20" transform="translate(968.990234 0)"/>
      <use xlink:href="#DejaVuSans-4d" transform="translate(1000.777344 0)"/>
      <use xlink:href="#DejaVuSans-57" transform="translate(1087.056641 0)"/>
      <use xlink:href="#DejaVuSans-2d" transform="translate(1181.933594 0)"/>
      <use xlink:href="#DejaVuSans-73" transform="translate(1218.017578 0)"/>
      <use xlink:href="#DejaVuSans-69" transform="translate(1270.117188 0)"/>
      <use xlink:href="#DejaVuSans-67" transform="translate(1297.900391 0)"/>
      <use xlink:href="#DejaVuSans-29" transform="translate(1361.376953 0)"/>
     </g>
    </g>
    <g id="line2d_4">
     <path d="M 980.063438 88.747969 
L 987.263438 88.747969 
L 994.463438 88.747969 
" style="fill: none; stroke-dasharray: 4.44,1.92; stroke-dashoffset: 0; stroke: #95a5a6; stroke-width: 1.2"/>
    </g>
    <g id="text_41">
     <!-- unstable (bootstrap &lt; 0.80) -->
     <g style="fill: #262626" transform="translate(1001.663438 91.897969) scale(0.09 -0.09)">
      <use xlink:href="#DejaVuSans-75"/>
      <use xlink:href="#DejaVuSans-6e" transform="translate(63.378906 0)"/>
      <use xlink:href="#DejaVuSans-73" transform="translate(126.757812 0)"/>
      <use xlink:href="#DejaVuSans-74" transform="translate(178.857422 0)"/>
      <use xlink:href="#DejaVuSans-61" transform="translate(218.066406 0)"/>
      <use xlink:href="#DejaVuSans-62" transform="translate(279.345703 0)"/>
      <use xlink:href="#DejaVuSans-6c" transform="translate(342.822266 0)"/>
      <use xlink:href="#DejaVuSans-65" transform="translate(370.605469 0)"/>
      <use xlink:href="#DejaVuSans-20" transform="translate(432.128906 0)"/>
      <use xlink:href="#DejaVuSans-28" transform="translate(463.916016 0)"/>
      <use xlink:href="#DejaVuSans-62" transform="translate(502.929688 0)"/>
      <use xlink:href="#DejaVuSans-6f" transform="translate(566.40625 0)"/>
      <use xlink:href="#DejaVuSans-6f" transform="translate(627.587891 0)"/>
      <use xlink:href="#DejaVuSans-74" transform="translate(688.769531 0)"/>
      <use xlink:href="#DejaVuSans-73" transform="translate(727.978516 0)"/>
      <use xlink:href="#DejaVuSans-74" transform="translate(780.078125 0)"/>
      <use xlink:href="#DejaVuSans-72" transform="translate(819.287109 0)"/>
      <use xlink:href="#DejaVuSans-61" transform="translate(860.400391 0)"/>
      <use xlink:href="#DejaVuSans-70" transform="translate(921.679688 0)"/>
      <use xlink:href="#DejaVuSans-20" transform="translate(985.15625 0)"/>
      <use xlink:href="#DejaVuSans-3c" transform="translate(1016.943359 0)"/>
      <use xlink:href="#DejaVuSans-20" transform="translate(1100.732422 0)"/>
      <use xlink:href="#DejaVuSans-30" transform="translate(1132.519531 0)"/>
      <use xlink:href="#DejaVuSans-2e" transform="translate(1196.142578 0)"/>
      <use xlink:href="#DejaVuSans-38" transform="translate(1227.929688 0)"/>
      <use xlink:href="#DejaVuSans-30" transform="translate(1291.552734 0)"/>
      <use xlink:href="#DejaVuSans-29" transform="translate(1355.175781 0)"/>
     </g>
    </g>
   </g>
  </g>
 </g>
 <defs>
  <clipPath id="pe7e74593b4">
   <rect x="7.2" y="22.318125" width="1130.4" height="826.909091"/>
  </clipPath>
 </defs>
</svg>
